<mxfile host="app.diagrams.net" agent="Mozilla/5.0 (Windows NT 10.0; Win64; x64) AppleWebKit/537.36 (KHTML, like Gecko) Chrome/134.0.0.0 Safari/537.36" version="26.0.14">
  <diagram name="第 1 页" id="juDC25-IuBKMOjNrdJf1">
    <mxGraphModel dx="1050" dy="522" grid="1" gridSize="10" guides="1" tooltips="1" connect="1" arrows="1" fold="1" page="1" pageScale="1" pageWidth="827" pageHeight="1169" math="0" shadow="0">
      <root>
        <mxCell id="0" />
        <mxCell id="1" parent="0" />
        <mxCell id="MHwO3un_tIOSiWFGietP-3" value="" style="shape=image;verticalLabelPosition=bottom;labelBackgroundColor=default;verticalAlign=top;aspect=fixed;imageAspect=0;image=data:image/jpeg,/9j/4AAQSkZJRgABAQEA8ADwAAD/2wBDAAgGBgcGBQgHBwcJCQgKDBQNDAsLDBkSEw8UHRofHh0aHBwgJC4nICIsIxwcKDcpLDAxNDQ0Hyc5PTgyPC4zNDL/2wBDAQkJCQwLDBgNDRgyIRwhMjIyMjIyMjIyMjIyMjIyMjIyMjIyMjIyMjIyMjIyMjIyMjIyMjIyMjIyMjIyMjIyMjL/wAARCAAgAfUDASIAAhEBAxEB/8QAHwAAAQUBAQEBAQEAAAAAAAAAAAECAwQFBgcICQoL/8QAtRAAAgEDAwIEAwUFBAQAAAF9AQIDAAQRBRIhMUEGE1FhByJxFDKBkaEII0KxwRVS0fAkM2JyggkKFhcYGRolJicoKSo0NTY3ODk6Q0RFRkdISUpTVFVWV1hZWmNkZWZnaGlqc3R1dnd4eXqDhIWGh4iJipKTlJWWl5iZmqKjpKWmp6ipqrKztLW2t7i5usLDxMXGx8jJytLT1NXW19jZ2uHi4+Tl5ufo6erx8vP09fb3+Pn6/8QAHwEAAwEBAQEBAQEBAQAAAAAAAAECAwQFBgcICQoL/8QAtREAAgECBAQDBAcFBAQAAQJ3AAECAxEEBSExBhJBUQdhcRMiMoEIFEKRobHBCSMzUvAVYnLRChYkNOEl8RcYGRomJygpKjU2Nzg5OkNERUZHSElKU1RVVldYWVpjZGVmZ2hpanN0dXZ3eHl6goOEhYaHiImKkpOUlZaXmJmaoqOkpaanqKmqsrO0tba3uLm6wsPExcbHyMnK0tPU1dbX2Nna4uPk5ebn6Onq8vP09fb3+Pn6/9oADAMBAAIRAxEAPwD3+kLAUtcF4/8AH1x4NvtNtbbS471rxJXy85jC7Cvopznd+lKTSVy6dOVSahDVs7zIFAINeHyfHXUo5Y4h4Ztmd+Qq3x4Hqfkxip/+F26rj/kW7X/wOb/43Wbr01uztjlWMk2o027bntO4ClByK8OuPjtqduFB8NWzs3RFvmyf/HK9e8Par/bnh3TtVMPkG8t0mMe7ds3KDjPfGcZq4zjLWLOavhq1B2qxaNLIoyBWH4m1u40O0s3trNLue6vI7RI5JzEoL5+Yttbpj0rHm8b3NnHqcV/pKRXthNZpJHDd+bEy3MojBDlAcj5iQVHQevFGB2m4c89KWuf8X+IJfC+gtqUFg2oS+fFClusvll2dwgwSCB970pkHiq2u9R0KC0j8231e1muo5t2NgQRnG3HU+Z7YxQB0eaKxfD2t/wBveGbPWhbiEXMPm+V5m7b143YGenpU3h3Vzr/hzTdX8jyPttuk/lbt2zcoOM4GcZxnFAGpRmikoAMijI9aw/Feuy+HdDa+t7VLqczwwxwvJ5YLSSKgy2D0LZ6VyY8a+N/st/P/AMIVb/6I7J5f29t82P4ox5XzD0PeueriaNHSpJL1Gk3sekZFG4DvXnTeMfG6yach8HWhN4Mlhfti34ziX938p69M9KRfGPjZ5NQX/hD7QfYxkE6g2J+M4iPlfMceuOo96x/tLCdKkfvXoPkl2PRtwoyK5TwP4ovfFNheSahpI0y6tJxC1v5u/GY0cE/KMHD4xW/qV3/Z2lXl75e/7PC8uzdjdtUnGecdOuDXapKSuiS5uGcZo3D1ri9O8fJqPhex1f8As5ori4v4LCe0eb5rdpZFXO7b8w2urDgZBHSreh+INc1xzcR6NYxad9pmtzK2osZcRyNGW8vycclDxu/GmB1JIFLWP4e1g67pbXpg8j/SZ4Ngfd/qpWj3ZwOuzOO2a1x0FAC0ZoptAC7hRuFcN4j8Z6rpfiSbSdL0a3vTDapcu0t0YidzONqjY39z9axtN+JPiLVInaHw/pyNE/lyxS6g4eNvQjyquNOT2RyVcbQpNqpNKx6luFJvHv8AlXnX/Ca+KgM/8I9pmeuP7Rb/AONVkn4r68tpqFxJ4cskaw3NPA9+3mKByCB5eCCOQQcGqlRnHdEU8ywlXSFRM9czS5qKFxJCkmMblDdfWsy/1kWWvaVpf2ff/aPnfvN+NnloG6Y5znHUYrI7jYzSZBNc1q/ir+y7/Vrb7EJTp+kHUw3m48zBkGzocfc689elUIfGt7BPbwavo8Vq13Yy3lo1vemZZBGqsyMSiFWww5wRzQB2mRjPalrjNI8ZX11d6HDqejQ2a61A01lJBdmfkR+YVcFEKnbnoGHvXZjgYoAKKKSkAZFLmvHPF3xsuPDPjDUNDi0GO5W0ZQZmuihbKq3TacferEP7RV5tY/8ACLw4U4P+nH/4iuyngcRVgpwg2mTzJPU9+zSZFeB/8NE3oYD/AIReHn/p+P8A8RVvSPj7dalrVjYSeG4Y0ubqO3ZxeEld7Bc42c9ac8vxUFzSg0ClFnuVJkUDpXNeJfFSeH7qzg+yG480mW5ZZNv2e3DIryng5wXXjjIDHPGK4yjpcilzWRDrHneKLzRvIANtaQ3Pm7s7vMaRduMdvLznPes258Qaw3iS+0jStHsrj7DBDLLLc6g0GfM3YACwv02HnIoA6jIFGRnFc5qHiX+w7uwXWreGztLmImS8WfdFDcAbjGxKjgqGKseuCCBkZvaDqc2r6RHfzWL2aTZeGF2y5iz8jMMDaWXB284zigDWooooAKTIoP0rxjVvjhfafqF/Cnh+2eG1uZYBI96Qz7HK5wEPJx0pOSW5MpKO57RmkyK8TX446u8Yf/hGLZM84a+PH/jlRxfHbVJpXRPDVqQpwX+3Ntz6f6us/bQ7maxFJpvmPcNwpa808EfE678V+JjpFzpEVn/ozzrJHcmTlSowRtH96vSx0FaRkpK6NIyUldCZGcZ59KWuFvfHGpWtvrGo/wBiW7aVpV3JbzTDUMTMExuZYzHtPXgb66XVLnVreJH0uws7ogEyLcXbW+0dRjEb5PXrimUamR60tcLpfxCMlnpd5rdlbadFqtqbqyS3uJrqaUAKSNiwjkB14BPsMA43JfGWg292LWW+ZJNyI7GCTy4mcAqsj7dqMcjhiDzQBvUVial4u0PSb1rS9vTHLGFMpEMjpCD0MjqpWPPbcRW31oAKKKKACvF/jfZ6lNqmhz6fpl3ebYbhGNvA0gQkxkZ2jjvXtFNI/XrUyipKzNaFaVCoqsN0fJ1tpGqQAs2i6w8rfff7BLk/+O9KfNZawkRMegavI3ZfsEo/9lr6worleCpt3dz3Y8TYyEOSCS+T/wAz5Jh0fVkRpJNF1d55Bgn7BNgew+XpX0r4GgmtvAegwXETxTR2MKvHIpVlOwcEHofauhorenRjTd0eZjMwqYtRjNJW7fqcn490i41jSrCKDTDqUcOowzz2oaMeZEud332VT1HGa5O68K6wbTV5NH8ONpdjKbFodIWaENJLFcrJJKAr+WnyDGN3O0E89fWKK1OA4vVjrfiGwt4f+EcvLFrfUrK4xcXFud6JOruRskblQueevbJqpZeFtV0z4kW01vAreHoo7qaJ965glnMZeMLnO3chYYGBvI7Cu/ooA4XwY2vaV4d0zQr7wxfQNBCYnu/tFs0annBwsu7H4Vu+DdPutJ8FaJp97F5V1bWUUU0e4NtYKARkEg/hW7RQAUlLRQBxXxSt7y48DzrYLMbhbq2dWhhMrJiZDuCgEtjrgelc9L4okbUtNnjm1lbSBGF3B/YM/wDpLFRtIOz5cHJxXqpz/wDqoHSvOxuWUcY4up0v26+qfy7Fxm47Hkw8TXQi1hWu9ZL3Jb7Aw8Pzj7IMfLn9382DzzQ3ia6MWjqt3rKvbspv3/sCf/SgBzgbPlyfSvWqK4v9XcH5/wDkva38v9PXcv20jiPh+8lzP4jvvs91DDc6kHh+0wPEzKIIhnawB6gj8K6fW7aa88P6jbQJvmmtZI41yBlipAGTx1q8Qe3WnV7VKkqUI047JWMm7nmOo+DtaibwxPp1qrZk05dYh8xBs+zujCUZOCVCuhxkkFeuK3PB/g2z0uH7ffaNZx6z9supRcmNGlCvNIVO8ZPMbL3zzjtiuyorQRxHhZ9d0W3/ALKufDF+yG/uX+1rc2xjCSXDuGx5u/AVhkbc8dK7eiigAppz2p1FAHlXiyaTTviHdXMtjqEsE2n26pJb2cky5V5cjKg4PI/OuZ1W5LXK6ppen6xDqUQ2kNpdwEuE/uOAn5HqK952nn0NOrphipwjyo8jEZLh6+IeIk3d6PazX3HjFv4iWa3jeXR9bhkYfNG2mTEqfqFrD8WKms6VcNaabraaiIWjjZdMnHmKRyjZTBU+/Q89q+g6bg5qpYypKPK7HNR4bwlCqqtNyTXmv8iK1VktIUZSCEUEH6VzXii21RPEHh/VNP0qfUUsWuPOjhliRgHQKCPMZQfzrrBwKK5D6A891DTNc1u58Q3h0S4s/tfh5rGCKeeEs82ZSBlHIGd45yBzWnaeC7Sw0SWSKG5m1ZtNa1ElzeSTMuU5RS7EIN3pgcV19FAHJeFPBtnpGnaTc3UFw2qW9kkLG4vJJxAdgDrGGYqgyMfJj06V1tFFABSc0tFAHyz8TvD+uT/FDXLq30XUZ7eR0KSxWrujfuk6EDHY1yB8MeIvLkX/AIR7V8knH+gy/wDxNfaZHtTq9bD5xXoUVRilZX/Eh003c+LT4a8QGRT/AMI/q+ADn/QZf/ia0/DXhvX08WaOz6FqiIuo27Mz2cihVEi5JJGAK+v6aQecd/wrSpnuIqQcGlr/AJW7iVJLUWuHuvCWp6/rOu3d7qV3plvdL9gighWCUTWoXktvRsbmeTgYOMZ5ruR0orxTQ830SLxXomrfa77w9d6i7aZBYvLb3NuNzQyzDed8g+8rI3/AsdQRSX2hPeeLb3VtV8CS6tFdWdqsIZrR2tnXeXU75Rg/MvKkjj2r0migDidb8N3Pi2Cz0S5spdM0CO2WSZFkQO0uMRxDYxCiM/MeoJCAZANb/h86v/ZKRa1Cq30DmJ5UK7Zwp4lUA8Bhg4OCDkYxiteigAooooAQ18qaroWrDxVq8k+j6rIov7hodljKy4MjHcCFwc9jX1ZSVFSmpqzMqtJVY8rPkm40/XJ3EKaHrCREfPJ9glJ+gG2pDp2qwW+yDw9rB2jCp9gl/wDia+s6K5/qdO1jm+oUrJanz98HdI1S38fvd3mn38SmwlWSW4tpIkBLx4UbgPevoEdKaRzTq6YxUVZHZCCguVHkuo+ELud/ESDwb5+qXl9NNYawZrdBBuC+XJvD+aNrDdgL/hXoFjoP2IyXLXl9cXksO2US3kskRfjJWNmKLz6AYzW1RVFHA+H/AA3qlnJ4Ha6s9n9l6TPb3RLoxilZYABwTnOx+Vz+tZ0/g67S+1e1u9J1bU7S/vJbhJLbWWgg2SNuKSRmRcYyRlVbIA716fRQB5rqPhO8j1nW/N0vVtTs9Um85TZaw1sgDRqjJLH5iA/d+8A2VIBzivRbWFbe0hgRSixxqgUtuwAMYz3qWigAooooA//Z;" vertex="1" parent="1">
          <mxGeometry x="280" y="250" width="501" height="32" as="geometry" />
        </mxCell>
        <mxCell id="MHwO3un_tIOSiWFGietP-4" value="" style="shape=image;verticalLabelPosition=bottom;labelBackgroundColor=default;verticalAlign=top;aspect=fixed;imageAspect=0;image=data:image/jpeg,/9j/4AAQSkZJRgABAQEA8ADwAAD/2wBDAAgGBgcGBQgHBwcJCQgKDBQNDAsLDBkSEw8UHRofHh0aHBwgJC4nICIsIxwcKDcpLDAxNDQ0Hyc5PTgyPC4zNDL/2wBDAQkJCQwLDBgNDRgyIRwhMjIyMjIyMjIyMjIyMjIyMjIyMjIyMjIyMjIyMjIyMjIyMjIyMjIyMjIyMjIyMjIyMjL/wAARCAGTAagDASIAAhEBAxEB/8QAHwAAAQUBAQEBAQEAAAAAAAAAAAECAwQFBgcICQoL/8QAtRAAAgEDAwIEAwUFBAQAAAF9AQIDAAQRBRIhMUEGE1FhByJxFDKBkaEII0KxwRVS0fAkM2JyggkKFhcYGRolJicoKSo0NTY3ODk6Q0RFRkdISUpTVFVWV1hZWmNkZWZnaGlqc3R1dnd4eXqDhIWGh4iJipKTlJWWl5iZmqKjpKWmp6ipqrKztLW2t7i5usLDxMXGx8jJytLT1NXW19jZ2uHi4+Tl5ufo6erx8vP09fb3+Pn6/8QAHwEAAwEBAQEBAQEBAQAAAAAAAAECAwQFBgcICQoL/8QAtREAAgECBAQDBAcFBAQAAQJ3AAECAxEEBSExBhJBUQdhcRMiMoEIFEKRobHBCSMzUvAVYnLRChYkNOEl8RcYGRomJygpKjU2Nzg5OkNERUZHSElKU1RVVldYWVpjZGVmZ2hpanN0dXZ3eHl6goOEhYaHiImKkpOUlZaXmJmaoqOkpaanqKmqsrO0tba3uLm6wsPExcbHyMnK0tPU1dbX2Nna4uPk5ebn6Onq8vP09fb3+Pn6/9oADAMBAAIRAxEAPwD3+iiigAooooAKKKKACiiufn8beFYLiS3n8SaRFNE5SSOS9jVkYHBBBPBBoA6Ciud/4T7wf/0NWif+B8X/AMVR/wAJ94P/AOhq0T/wPi/+KoA6Kiud/wCE+8H/APQ1aJ/4Hxf/ABVH/CfeD/8AoatE/wDA+L/4qgDoqK53/hPvB/8A0NWif+B8X/xVH/CfeD/+hq0T/wAD4v8A4qgDoqK53/hPvB//AENWif8AgfF/8VR/wn3g/wD6GrRP/A+L/wCKoA6Kiud/4T7wf/0NWif+B8X/AMVR/wAJ94P/AOhq0T/wPi/+KoA6Kiud/wCE+8H/APQ1aJ/4Hxf/ABVH/CfeD/8AoatE/wDA+L/4qgDoqK53/hPvB/8A0NWif+B8X/xVH/CfeD/+hq0T/wAD4v8A4qgDoqK53/hPvB//AENWif8AgfF/8VR/wn3g/wD6GrRP/A+L/wCKoA6Kiud/4T7wf/0NWif+B8X/AMVR/wAJ94P/AOhq0T/wPi/+KoA6Kiud/wCE+8H/APQ1aJ/4Hxf/ABVH/CfeD/8AoatE/wDA+L/4qgDoqK53/hPvB/8A0NWif+B8X/xVH/CfeD/+hq0T/wAD4v8A4qgDoqK53/hPvB//AENWif8AgfF/8VR/wn3g/wD6GrRP/A+L/wCKoA6Kiud/4T7wf/0NWif+B8X/AMVR/wAJ94P/AOhq0T/wPi/+KoA6Kiud/wCE+8H/APQ1aJ/4Hxf/ABVH/CfeD/8AoatE/wDA+L/4qgDoqK53/hPvB/8A0NWif+B8X/xVH/CfeD/+hq0T/wAD4v8A4qgDoqK53/hPvB//AENWif8AgfF/8VR/wn3g/wD6GrRP/A+L/wCKoA6Kiud/4T7wf/0NWif+B8X/AMVR/wAJ94P/AOhq0T/wPi/+KoA6Kiud/wCE+8H/APQ1aJ/4Hxf/ABVH/CfeD/8AoatE/wDA+L/4qgDoqK53/hPvB/8A0NWif+B8X/xVH/CfeD/+hq0T/wAD4v8A4qgDoqK53/hPvB//AENWif8AgfF/8VR/wn3g/wD6GrRP/A+L/wCKoA6Kiud/4T7wf/0NWif+B8X/AMVWlpusabrMDz6Xf2t9Ej7GktplkUNgHBKk84I/OgDQooooAKKKKACiiigAooooAKKKKACua8FKp0K5JUE/2rqPb/p8mrpa5zwR/wAgG5/7Cuo/+lk1AHQ7E/ur+VGxP7q/lTqKAG7E/ur+VIUTB+Vfyp9IehoAp6aif2VafKv+pTt7CrexP7q/lVbTf+QVaf8AXFP5CrdADdif3V/KjYn91fyp1FADdif3V/KjYn91fyp1FADdif3V/KjYn91fyp1FAFLTkT7M/wAq/wCvl7f9NGq3sT+6v5VW07/j2f8A67y/+jGq3QA3Yn91fyo2J/dX8qdRQA3Yn91fyo2J/dX8qdRQA3Yn91fyo2J/dX8qdRQBS05E+zP8q/6+Xt/00arexP7q/lVbTv8Aj2f/AK7y/wDoxqt0AN2J/dX8qNif3V/KnUUAN2J/dX8qNif3V/KnUUAN2J/dX8qNif3V/KnUUAUrRE+033yr/rx2/wCmaVb2J/dX8qrWn/Hzff8AXcf+i0q3ketADdif3V/KjYn91fyp1FADdif3V/KjYn91fyp1FADdif3V/KjYn91fyp1FAFK0RPtN98q/68dv+maVb2J/dX8qrWn/AB833/Xcf+i0q3QA3Yn91fyo2J/dX8qdRQA3Yn91fyrnfDQA13xaAMD+1U/9I7aukrnPDf8AyHvFv/YVT/0jtqAOjooooAKKKKACiiigAqKSVIY2kkdURQWZmOAAOpJqWqeoxxT6ZdQzSiKKSF1eQkAIpUgnn0oAq6d4k0PWbh4dL1nT76ZF3tHa3SSsFzjJCk4GSOfep7DWNM1QyLp2o2l4YTtlFvOsmw+jbScH615l4hOpeHdFu/DWnaudVil0C5Ma+VGs9qsSKFIMYGVYMQMjOQME810EP9l/8J34Z/sH7P5P9l3Hm/Z8Y+zfuvK3Y7bun/AvegDvK5zwR/yAbn/sK6j/AOlk1aWpw6tNFGNLvbO1kB+drq1acMPQBZEx+ZrnvBEWojw9Kr3VsZBqN+HYW7AFvtcuSBv4BOcDJx6nrQB2VFVPL1D/AJ+bb/vw3/xdHl6h/wA/Nt/34b/4ugC3SHoaq+XqH/Pzbf8Afhv/AIukMeoYP+k23/fhv/i6ADTf+QVaf9cU/kKtA1498YTFH8OdKbUEa4tjdQ7EgbynB8t8EsQwIxnjAryjwrLo58b6GILG+SY30AjeS8VlVvNXBKiMEjOOMj616OGy516Eqye3l/wV+REp2dj66oqmI9Qx/wAfNt/34b/4ul8vUP8An5tv+/Df/F15xZboqp5eof8APzbf9+G/+Lo8vUP+fm2/78N/8XQBboqp5eof8/Nt/wB+G/8Ai6PL1D/n5tv+/Df/ABdABp3/AB7P/wBd5f8A0Y1W6ybGO9Nu2y4twPOk6wk872z/ABVb8vUP+fm2/wC/Df8AxdAFuiqnl6h/z823/fhv/i6PL1D/AJ+bb/vw3/xdAFuiqnl6h/z823/fhv8A4ujy9Q/5+bb/AL8N/wDF0AW6KqeXqH/Pzbf9+G/+Lo8vUP8An5tv+/Df/F0AGnf8ez/9d5f/AEY1W6ybGO9Nu2y4twPOk6wk872z/FVvy9Q/5+bb/vw3/wAXQBboqp5eof8APzbf9+G/+Lo8vUP+fm2/78N/8XQBboqp5eof8/Nt/wB+G/8Ai6PL1D/n5tv+/Df/ABdAFuiqnl6h/wA/Nt/34b/4ujy9Q/5+bb/vw3/xdAGD4r/5Ezxd/wBek/8A6Tivj/8A5c/x/rX1x4kWdfCficzSI8Qtp/NWNCrOPJGQpydpxxkg88+1fLXn6F9m/wCQdqOM9Pt6ev8A1xr6PIm1Tre637r7eRjV6H2tRVTy9Q/5+bb/AL8N/wDF0eXqH/Pzbf8Afhv/AIuvnDYt0VU8vUP+fm2/78N/8XR5eof8/Nt/34b/AOLoAt0VU8vUP+fm2/78N/8AF0eXqH/Pzbf9+G/+LoALT/j5vv8AruP/AEWlW6ybaO9+0Xe24gB84bsxE5Oxenzcdqt+XqH/AD823/fhv/i6ALdFVPL1D/n5tv8Avw3/AMXR5eof8/Nt/wB+G/8Ai6ALdc54b/5D3i3/ALCqf+kdtWx5eof8/Nt/34b/AOLrE8LhxrPiwSMGf+1UyVXaP+PO27ZNAHTUUUUAFFFFABRRRQAVDNFHcRPFKivG6lWRhkMDwQR3FTUUAZ+naJpWkLINN0yyshJ9/wCzW6x7vrtAzS2Gj6ZpZkbTtOtLNpjulNvAse8+rbQMn61fooAK5zwR/wAgG5/7Cuo/+lk1dHXOeCP+QDc/9hXUf/SyagDo6KKKACkPQ0tIehoA8b+OX/JLdG/6/IP/AEVJXjXg7/kf/D3/AGELf/0atey/HH/klujf9fkH/oqSvGvB3/I/+Hv+whb/APo1a+syr/kXVfl+bMKnxo+yh0ooHSivkzcKKKKACiiigCpp3/Hs/wD13l/9GNVuqmnf8ez/APXeX/0Y1W6ACiiigAooooAKKKKAKmnf8ez/APXeX/0Y1W6qad/x7P8A9d5f/RjVboAKKKKACiiigAooooA5bxX/AMiZ4u/69J//AEnFfH//AC5/j/WvsDxX/wAiZ4u/69J//ScV8f8A/Ln+P9a+n4f/AIdb/DL8kY1eh909qKO1FfMGwUUUUAFFFFAFS0/4+b7/AK7j/wBFpVuqlp/x833/AF3H/otKt0AFFFFABXOeG/8AkPeLf+wqn/pHbV0dc54b/wCQ94t/7Cqf+kdtQB0dFFFABRRRQAUUUUAFFFFABRRRQAVzngj/AJANz/2FdR/9LJq6Ouc8Ef8AIBuf+wrqP/pZNQB0dFFFABSHoaWkPQ0AeN/HH/klujf9fkH/AKKkrxrwd/yP/h7/ALCFv/6NWvZfjj/yS3Rv+vyD/wBFSV414O/5H/w9/wBhC3/9GrX1mVf8i6r8vzZhU+NH2UOlFA6UV8mbhRRRQAUUUUAVNO/49n/67y/+jGq3VTTv+PZ/+u8v/oxqt0AFFFFABRRRQAUUUUAVNO/49n/67y/+jGq3VTTv+PZ/+u8v/oxqt0AFFFFABRRRQAUUUUAct4r/AORM8Xf9ek//AKTivj//AJc/x/rX2B4r/wCRM8Xf9ek//pOK+P8A/lz/AB/rX0/D/wDDrf4ZfkjGr0PuntRR2or5g2CiiigAooooAqWn/Hzff9dx/wCi0q3VS0/4+b7/AK7j/wBFpVugAooooAK5zw3/AMh7xb/2FU/9I7aujrnPDf8AyHvFv/YVT/0jtqAOjooooAKKKKACiiigAooooAKKKKACuc8Ef8gG5/7Cuo/+lk1dHXOeCP8AkA3P/YV1H/0smoA6OiiigApD0NLSHoaAPG/jj/yS3Rv+vyD/ANFSV414O/5H/wAPf9hC3/8ARq17L8cv+SW6N/1+Qf8AoqSvGvB3/I/+Hv8AsIW//o1a+syr/kXVfl+bMKnxo+yh0ooHSivkzcKKKKACiiigCpp3/Hs//XeX/wBGNVuqmnf8ez/9d5f/AEY1W6ACiiigAooooAKKKKAKmnf8ez/9d5f/AEY1W6qad/x7P/13l/8ARjVboAKKKKACiiigAooooA5bxX/yJni7/r0n/wDScV8f/wDLn+P9a+wPFf8AyJni7/r0n/8AScV8f/8ALn+P9a+n4f8A4db/AAy/JGNXofdPaijtRXzBsFFFFABRRRQBUtP+Pm+/67j/ANFpVuqlp/x833/Xcf8AotKt0AFFFFABXOeG/wDkPeLf+wqn/pHbV0dc54b/AOQ94t/7Cqf+kdtQB0dFFFABRRRQAUUUUAFFFUNVvv7M0q7v/s81wbeJpBDAhZ5CBnaoHUnpQBforwu5157PUvEGowTX7a1ceHpJZJWsriIRShnbC70G1EQAKTgEr/eJrtrPSdP8N+ONCttEiEMF/YXP2tUYkTCPyikrerZYjd1O6gDvq5zwR/yAbn/sK6j/AOlk1aWpzatDFGdLsrO6kJ+dbq6aAKPUFY3z+QrnvBEuonw9Kz2tsJDqN+XUXDEBvtcuQDs5AOcHAz6DpQB2VFVPM1D/AJ9rb/v+3/xFHmah/wA+1t/3/b/4igC3SHoaq+ZqH/Ptbf8Af9v/AIikMmoYP+jW3/f9v/iKAPJvjj/yS3R/+v2D/wBFSV414O/5H/w//wBhC3/9GrXs/wAYRFJ8OdKXUGa3thdQ7HgXzXJ8t8AqSoAxnnJryjwrFo48b6GYb2+eYX0BjSS0VVZvNXALCQkDOOcH6V9TldRLL6qd/ufdmFRe8fXQ6UVTEmoY/wCPa2/7/t/8RS+ZqH/Ptbf9/wBv/iK+WNy3RVTzNQ/59rb/AL/t/wDEUeZqH/Ptbf8Af9v/AIigC3RVTzNQ/wCfa2/7/t/8RR5mof8APtbf9/2/+IoANO/49n/67y/+jGq3WTYyXot22W9uR50nWYjne2f4at+ZqH/Ptbf9/wBv/iKALdFVPM1D/n2tv+/7f/EUeZqH/Ptbf9/2/wDiKALdFVPM1D/n2tv+/wC3/wARR5mof8+1t/3/AG/+IoAt0VU8zUP+fa2/7/t/8RR5mof8+1t/3/b/AOIoANO/49n/AOu8v/oxqt1k2Ml6LdtlvbkedJ1mI53tn+Grfmah/wA+1t/3/b/4igC3RVTzNQ/59rb/AL/t/wDEUeZqH/Ptbf8Af9v/AIigC3RVTzNQ/wCfa2/7/t/8RR5mof8APtbf9/2/+IoAt0VU8zUP+fa2/wC/7f8AxFHmah/z7W3/AH/b/wCIoAwPFf8AyJni7/r0n/8AScV8gf8ALp+P9a+ufEjTt4T8TiaNEhNrP5rRuWZB5AyVGBuOOcEjnj3r5Z8jQvs3/IR1HGev2BPX/rtX0mQ1FGnWvf4X0b7GNVao+1u1FVPM1D/n2tv+/wC3/wARR5mof8+1t/3/AG/+Ir5s2LdFVPM1D/n2tv8Av+3/AMRR5mof8+1t/wB/2/8AiKALdFVPM1D/AJ9rb/v+3/xFHmah/wA+1t/3/b/4igAtP+Pm+/67j/0WlW6ybaS9+0Xe23gJ84bsykYOxeny89qt+ZqH/Ptbf9/2/wDiKALdFVPM1D/n2tv+/wC3/wARR5mof8+1t/3/AG/+IoAt1znhv/kPeLf+wqn/AKR21bHmah/z7W3/AH/b/wCIrE8LlzrPiwyKFf8AtVMhW3D/AI87bvgUAdNRRRQAUUUUAFFFFABRRRQBnvpFhLqEl9LbK9zJb/ZXZiSGiyTtK9MZJ7VU0jwro2gzvPp9o0crIIt7zPIUjByEXex2rn+FcD2rbooAK5zwR/yAbn/sK6j/AOlk1dHXOeCP+QDc/wDYV1H/ANLJqAOjooooAKQ9DS0h6GgDxv44/wDJLdG/6/IP/RUleNeDv+R/8Pf9hC3/APRq17L8cf8Aklujf9fkH/oqSvGvB3/I/wDh7/sIW/8A6NWvrMq/5F1X5fmzCp8aPsodKKB0or5M3CiiigAooooAqad/x7P/ANd5f/RjVbqpp3/Hs/8A13l/9GNVugAooooAKKKKACiiigDjPGHiC88LeANS1qxSB7m2nwizKSh3XAQ5AIPRj3ryH/hfvivzcfYdGxjP+pl9f+ulek/Fb/kkGuf9fCf+la18xf8ALYf7v9a+lyPBYfEUZSqxu00vkzGpJp6H3KOQKKQfdH0pa+aNgooooAKKKKAOW8V/8iZ4u/69J/8A0nFfH/8Ay5/j/WvsDxX/AMiZ4u/69J//AEnFfH//AC5/j/Wvp+H/AOHW/wAMvyRjV6H3T2oo7UV8wbBRRRQAUUUUAVLT/j5vv+u4/wDRaVbqpaf8fN9/13H/AKLSrdABRRRQAVznhv8A5D3i3/sKp/6R21dHXOeG/wDkPeLf+wqn/pHbUAdHRRRQAUUUUAFFFc1eT+Lrm6lXTbXS7K2SQqkt87zPKAcbgkeAoPUZYn1A6UAdLRWFpdz4iFyLfWLKxaMgkXdjMdoI7NG4yPwLe+K3aACiiigArnPBH/IBuf8AsK6j/wClk1dHXOeCP+QDc/8AYV1H/wBLJqAOjooooAKQ9DS0h6GgDxv44/8AJLdG/wCvyD/0VJXjXg7/AJH/AMPf9hC3/wDRq17L8cf+SW6N/wBfkH/oqSvGvB3/ACP/AIe/7CFv/wCjVr6zKv8AkXVfl+bMKnxo+yh0ooHSivkzcKKKKACiiigCpp3/AB7P/wBd5f8A0Y1W6qad/wAez/8AXeX/ANGNVugAooooAKKKKACiiigDzf4rf8kf1v8A6+F/9K1r5i/5bD/d/rX078Vv+SP63/18L/6VrXzF/wAth/u/1r7Dhv8AgT/xI56259yD7o+lLSD7o+lLXx50BRRRQAUUUUAct4r/AORM8Xf9ek//AKTivj//AJc/x/rX2B4r/wCRM8Xf9ek//pOK+P8A/lz/AB/rX0/D/wDDrf4ZfkjGr0PuntRR2or5g2CiiigAooooAqWn/Hzff9dx/wCi0q3VS0/4+b7/AK7j/wBFpVugAooooAK5zw3/AMh7xb/2FU/9I7aujrnPDf8AyHvFv/YVT/0jtqAOjooooAKKKKACuT8UWeuT3dnfaCkE80UFzbbZJ/LEbybAsvQ52FCCOvzHFdZXOXng3Trm5lubae/02eVi8raddvAJGPVmQHaSfXGfegCt4U8NL4Y1C+htUWLTpILZYhvyZZlD+bKRn7zApk99ua6ysTS/DGm6Vcfa0+03N7tK/ar24eeUKeoDOTtHsuBW3QAUUUUAFc54I/5ANz/2FdR/9LJq6Ouc8Ef8gG5/7Cuo/wDpZNQB0dFFFABSHoaWkPQ0AeN/HH/klujf9fkH/oqSvGvB3/I/+Hv+whb/APo1a9l+OP8AyS3Rv+vyD/0VJXjXg7/kf/D3/YQt/wD0atfV5V/yLqvy/NmFT40fZQ6UUDpRXyhuFFFFABRRRQBU07/j2f8A67y/+jGq3VTTv+PZ/wDrvL/6MardABRRRQAUUUUAFFFFAHm/xW/5I/rf/Xwv/pWtfMX/AC2H+7/Wvp34rf8AJH9b/wCvhf8A0rWvmL/lsP8Ad/rX2HDf8Cf+JHPW3PuQfdH0paQfdH0pa+POgKKKKACiiigDlvFf/ImeLv8Ar0n/APScV8f/APLn+P8AWvsDxX/yJni7/r0n/wDScV8f/wDLn+P9a+n4f/h1v8MvyRjV6H3T2oo7UV8wbBRRRQAUUUUAVLT/AI+b7/ruP/RaVbqpaf8AHzff9dx/6LSrdABRRRQAVznhv/kPeLf+wqn/AKR21dHXOeG/+Q94t/7Cqf8ApHbUAdHRRRQAUUUUAFcP44uTDquiR3HiC80LTpTP595C6IhYBNkbM6kKT8xBP90jqRjuK47xlqs1nfaXpo1iz0i2vhN5t3dIj8oF2xqHIX5tzHJz93HUigDm9JvtSi1uWfSPFF/rumw3tpb7pRHNDMsrFZVDog+aMYfcpxg4I4Neq1zfhYnbcr/wk9vraLsCrBHCgg+9/wA8/X3/ALtb8sXmwvHudNykbkOGGe4PY0AS0V5LrOr3/hS91N7JtYtY4dKu5I01a6Nyt1Km3Y8OWfaFGSQSpII+XgkdHaW1z4d8X6Pp66pf31vqVpP9oF5cNL+9i2ESLn7udzAqMLyOKAO3rnPBH/IBuf8AsK6j/wClk1aWp6tb6RFG9zHeSK52gW1nLcEfURqxH1Nc94G1KCTw/LIEugsmpX7gG2kBAN3KRkFcg88g8joaAOyoqp/aMH9y5/8AAaT/AOJo/tGD+5c/+A0n/wATQBbpD0NVf7Rg/uXP/gNJ/wDE0h1GDB+S5/8AAaT/AOJoA8m+OP8AyS3R/wDr8g/9FSV414O/5H/w9/2ELf8A9GrXs/xhjOpfDnSraAqjpdwsTcMIUwI3HDvhSeegNeUeFdHuoPG2hzNLYlYr6BmCX0LsQJVPChiSfYAmvqcrqRjl9WLaT/4LMKifMfXQ6UVTGowY+5c/+A0n/wATS/2jB/cuf/AaT/4mvljct0VU/tGD+5c/+A0n/wATR/aMH9y5/wDAaT/4mgC3RVT+0YP7lz/4DSf/ABNH9owf3Ln/AMBpP/iaADTv+PZ/+u8v/oxqt1k2N/CluwKXH+ukPEDnq7H0q3/aMH9y5/8AAaT/AOJoAt0VU/tGD+5c/wDgNJ/8TR/aMH9y5/8AAaT/AOJoAt0VU/tGD+5c/wDgNJ/8TR/aMH9y5/8AAaT/AOJoAt0VU/tGD+5c/wDgNJ/8TSf2jB/cuf8AwGk/+JoA4P4rf8kf1v8A67r/AOla18xf8th/u/1r6b+JRF98LdYtYsrJJOhDTDykH+lK3LthRx6nrx14r54/sG884fvtP+7/ANBCD1/36+s4dqwhRmpNL3kYVU2z7QH3R9KWqY1GDA+S5/8AAaT/AOJpf7Rg/uXP/gNJ/wDE18mbluiqn9owf3Ln/wABpP8A4mj+0YP7lz/4DSf/ABNAFuiqn9owf3Ln/wABpP8A4mj+0YP7lz/4DSf/ABNAGD4r/wCRM8Xf9ek//pOK+P8A/l0/H+tfXPiWdLjwp4nhQSK0trMql42VQTAB8xIwo9zjA56V8s/2Be/ZtvnafnP/AEEbf1/36+lyKcYU63M7e7L9DGqtj7W7UVT/ALRg/uXP/gNJ/wDE0v8AaMH9y5/8BpP/AImvmjYt0VU/tGD+5c/+A0n/AMTR/aMH9y5/8BpP/iaALdFVP7Rg/uXP/gNJ/wDE0f2jB/cuf/AaT/4mgAtP+Pm+/wCu4/8ARaVbrJtr+Jbm7Jjn+aYEYgc/wKOeOKt/2jB/cuf/AAGk/wDiaALdFVP7Rg/uXP8A4DSf/E0f2jB/cuf/AAGk/wDiaALdc54b/wCQ94t/7Cqf+kdtWx/aMH9y5/8AAaT/AOJrD8LyLJrPix1DAHVE+8pU/wDHnbdjzQB09FFFABRRRQAV594j1uxuHS3fW/BL3VtNOkqanIrmMb8KoG8FWAGGz3HavQa4/wAS6HO+qadqtlo1nqS2plM9nJsjMjOF2yKzDaWXDDnHDnnNAB4JuIZjfeVd+F7jHl5/sEAbfvf6z5j+H/Aq6i4g+0WssHmPF5iFN8TYZMjGVPYjtXN+FNMvLfUtW1GfTLXSo73ygljBIrlSgbMjlRt3NuAwM8IOa6ygDmE8GWk87TatfX2rsbeS2Vb102pHIMOAsaKMkcZOTjvUukeFbfSL1bxtQ1C/uIoPs1u17Kr+RESCVXao67VyTljtHNdFRQAVzngj/kA3P/YV1H/0smro65zwR/yAbn/sK6j/AOlk1AHR0UUUAFIehpaQ9DQB438cv+SW6N/1+Qf+ipK8a8Hf8j/4e/7CFv8A+jVr2X44/wDJLdG/6/IP/RUleNeDv+R/8Pf9hC3/APRq19XlX/Iuq/L82YVPjR9lDpRQOlFfKG4UUUUAFFFFAFTTv+PZ/wDrvL/6MardVNO/49n/AOu8v/oxqt0AFFFFABRRRQAUUZHrSZB70rrYDzj4rf8AJH9c/wCvhf8A0rWvmL/lsP8Ad/rX078Vv+SP63/18L/6VrXzF/y2H+7/AFr7Hhv+BP8AxI56259yD7o+lLSD7o+lLXx50BRRRQAUUUUAct4r/wCRM8Xf9ek//pOK+P8A/lz/AB/rX2B4r/5Ezxd/16T/APpOK+P/APlz/H+tfT8P/wAOt/hl+SMavQ+6aKO1FfMGwUUUUAFFFFAFS0/4+b7/AK7j/wBFpVuqlp/x833/AF3H/otKt0AFFFFABXOeG/8AkPeLf+wqn/pHbV0dc54b/wCQ94t/7Cqf+kdtQB0dFFFABRRRQAVxnjnwxc+Koks9gltPsV2uxpMKtyyKIXI77fn9cEg12dcX42s2uLnS2vdPvtR0SMy/bLWzDMxchfLZkUguow+QM8sDjigCv4A0MaRe6tcw+HTodrdJbgW7mMu0qBxIw2M3ycrgZ/vHAzXeVxfge3EF7qosrK807Rm8o2tneZV1fD+Y6xsSyI3yYBxyrHHNdpQAUUUUAFc54I/5ANz/ANhXUf8A0smro65zwR/yAbn/ALCuo/8ApZNQB0dFFFABSHoaWkPQ0AeN/HH/AJJbo3/X5B/6Kkrxrwd/yP8A4e/7CFv/AOjVr2X44/8AJLdG/wCvyD/0VJXjXg7/AJH/AMPf9hC3/wDRq19ZlX/Iuq/L82YVPjR9lDpRQOlFfJm4UUUUAFFFFAFTTv8Aj2f/AK7y/wDoxqt1U07/AI9n/wCu8v8A6MardABRRRQAUUUUAcp4khF7qNtFFrD2MlkyXc8cTKDJFlhh89EJVufY03w9GLvWZtatNakvLC6gVIoEZWhQqcFlI7nv+Pth3iOYWWo20sWjvfSXrJaTyRKpMcWWOXJ6oCzce5pvh6UWmszaLa6LJZ2FrArxToqrC5Y5KqB3Hf8AH2z8Vef9r2Xfy26+d72t5HT/AMuzE+K3/JH9b/6+F/8ASta+Yv8AlsP93+tfTvxW/wCSP63/ANfC/wDpWtfMX/LYf7v9a/ZeG/4E/wDEjzq259yD7o+lLSD7o+lLXx50BRRRQAlFRvKicMwB9CaElR+FYE+grL21Pm5OZX7X1HZnN+K/+RM8Xf8AXpP/AOk4r4//AOXP8f619geK/wDkTPF3/XpP/wCk4r4//wCXP8f619Zw/wDw63+GX5Iwq9D7p7UUdqK+YNgooozQBzniW2nmk0+5j1e4sIbSYzziJgqzIByrk/w/59xR0aVJNeOqL4ge6tNTVUtLYyAxAqjEmP1JCkn6H04ueJ7yS3l0+1XS5r+G8mMExQArChHLOD/D/n0Bo6KIV186XHoRtbTTVV7S48tRExZGBEeOhAZgfqfXn4/GVqqzVQ5na8dLq1tPnvb5XOiKXszqLP8A4+b7/ruP/RaVbqpZ/wDHzff9dx/6LSrdfYHOFFFFABXOeG/+Q94t/wCwqn/pHbV0dc54b/5D3i3/ALCqf+kdtQB0dFFFABRRRQAVzuo61rlrfSw2fha5vrdcbbhLyBA+QCflZgRg5HI7V0VZGp63Bo91ZJdxulpcuYjdZ+SGTjYr+gbJAPTIA7igDK8Ox6vceKNY1XU9Hk02O4tbSCFJJ45SxjaYsfkJx/rF611lY2j67DrlxePZxSNp8DBIrzPyXD879nqq4A3dCScdMnZoAKKKKACuc8Ef8gG5/wCwrqP/AKWTV0dc54I/5ANz/wBhXUf/AEsmoA6OiiigApD0NLSHoaAPG/jj/wAkt0b/AK/IP/RUleNeDv8Akf8Aw9/2ELf/ANGrXsvxx/5Jbo3/AF+Qf+ipK8a8Hf8AI/8Ah7/sIW//AKNWvrMq/wCRdV+X5swqfGj7KHSigdKK+TNwooooAKKKKAKennFs/wD13l/9GNVvNcD8RL260/4Yaxc2VzNbXMc42zQuUdc3IBwRyOCR+NeF+EfFniS58XaHDP4h1aWOTUrdJEkvZGVlMqgggtyCOMV6WEyypiaMq0Wko3/BJ/qRKfK7H1nRRRXmlhRRRQBzerLcR6pLJ/aMcNvNbpDBEyD5ZtzkuCfvZBX5f9n3pvhhLq1t4rPUdSjvtRijzPKqLGWy3B2Dpxx74qr4hh0zUtXS3vtPluJNNSPUIpNh279zgBSDyw2H5T6ik8Kw6ZqV0fE9tp09rd38ASQ3CFJditgBlyQOnbqMV8Q0v7Xu/wCZdFvbTXezV2/M6f8Al2ZHxW/5I/rf/Xdf/Sta+Yv+Ww/3f619O/Fb/kj+t/8AXwv/AKVrXzF/y2H+7/Wv2fhv+BP/ABI86tufcg+6PpS0g+6PpS18edAUUUUAcv4jgv7nULL7BqiWiwSpLdRmNXM0POU5+7nB59vajRIb5vEF1enVY7jS54U+zW6RL8hGNzbx97P+elV/EkthYarA1xp9xcS6p5enu8MRYKmXI38/Kg3tk+/tweF5NO0/U5fDmn6dc20WnQKyOyHyirnOEckljnrXxXv/ANr6Lr2W3V33veyXkdP/AC7J/Ff/ACJni7/r0n/9JxXx/wD8uf4/1r7A8V/8iZ4u/wCvSf8A9JxXx/8A8uf4/wBa/XOH/wCHW/wy/JHBV6H3T2oo7UV8wbDe9ea+KfionhjXLvT30kTrb7R5v2jaWJUNgLsPrjrXpRx0NfOPxIt9/wAStWnkbcqmLy07L+6TJ+tc+JqOnBSTtqexkmDhjMS6U482j62tqtdD0Xw/46m8Z2d2jWsekXCKEgLTCUl3DbTgqvI25xzmtvRYNQjbTLe41iO5u7Ulr4rEqmYGNwBgfc+Yqc99vvXmfw/07T7r7fe3tm1y2ntFdQbASyuoc/KAeT6D1xXoPh+TS5NUs9dttLuoLzXMRyPJGQ6hI3ZfMGcKMJjI6krXxlSTqZmpdeaPRb9r72td+pWa4Wnha86FPZJfkn+Z2Fn/AMfN9/13H/otKt1Us/8Aj5vv+u4/9FpVuvuzxQooooAK5zw3/wAh7xb/ANhVP/SO2ro65zw3/wAh7xb/ANhVP/SO2oA6OiiigAooooAK8v1zT0vrzULa50nx5c280siukN3H9nkUk52qZR8h7AgcY4r1CuV8Yvoy/Yv7Xm1qP/WeV/Zhu+fu53/Z/wAMbvfHegCLwRapaQ3UEdl4itIlWNI01eZXUKNwAiCu20Dv0/hrr64fwPb7NS1mW0OtPpUnkfZ5NWefeXAfeEWb5goyvOBkk8nAx2Fz5/2Wb7KIzcbG8rzSQm7HG7HOM9cUAWKK5O01vV7HxKuk60+nXAkspL0S2UTxmEIyqQ6szZB3cNkfdPFUdL8Va1L/AGFqWo29imk67IEt44Q/nW+9GkiLsSVfcFwcBcEjrQB3Vc54I/5ANz/2FdR/9LJq0tS1rS9Fjjk1TUrOxWQ7Ua6nWMMfQFiM1z/gfVdPk8PzSJf2zRyalfujCVSGU3cpBBzyCCCDQB2NFVP7Tsf+fy3/AO/oo/tOx/5/Lf8A7+igC0aaeRXD6jHoum+ILvWPMnluNS8q2kMLPKoAGAcLnYPVuAPx5t+FBo2hWj6JZTPHBaKpVp3JDby5wHbhiDnIHTIryKWaOpinh1TaV7X6aJ3f32SNHTtHmucV8cf+SW6P/wBfkH/oqSvGvB3/ACP3h7/sIW//AKNWvZ/jDFLqnw50q106Nrq4ju4WeKAb3UCNwSQOQASPzryjwpoerweNdCnm0u9jhivoHeV4GVUUSKSSSMAAAmv0HK6kY5fVi2k/+CzkqJ8x9dDpRVQanY4/4/Lf/v6KP7Tsf+fy3/7+ivlTct0VU/tOx/5/Lf8A7+ij+07H/n8t/wDv6KALNGe9cxceILeTUp7WK8mj+y7JGdYv3cgIztVypDe4U5HSrGj67a6hB9sa7eOOQDZDcIIWTBIPysAwJ9/QY68+XTzOM8Q8PySTu1drT7/PoW4Wje5zXxQ/5JJrf/Xdf/Spa+efBX/I6+Hv+wrbf+jlr6F+IrC9+GGsWlowuLmSYFIYjudh9oVuAOTxz9K8K8I6Hq9t4t0OafS72KOLUoHkeS3ZVRRKpLEkcADnNffZNUhHA1FJpO0/yictRPnXyPryiqn9p2P/AD+W/wD39FH9p2P/AD+W/wD39FfKm5aB4pMj1FU21KywcXlvnH/PQV4Trl94p/4SDUvs93rH2f7VL5XlyybNm47duDjGMYxWNar7NJ2uehl2XvGzcFJRt3PXvES6s91Y/wBly2iKJ0N19oViWhydwTH8XpmjS01ceJLp5pLU6UYVEEaK3mh8/MWPTHp/nPAeEJ/ItLi61yTU5Lu9lWxzL5shWMDKn/ZXLv8AN0Hr1rsPDE2kaNt0GzlmSKzh+WSbcUIZs4Eh4Y89AePwr4+EZPNedR0vvy9Orv5Oy9GGJo+wcqV07aXRmfFb/kkGt/8AXwv/AKVrXzF/y2H+7/Wvpv4lMNQ+FusWdmRcXMk6FYYfndh9qVshRyeBn6V87/8ACOa55w/4k+oY24z9mf1+lfsXD1WEKE+Zpe8jyKqbZ9oj7o+lLVManY4H+mW//f0Uv9p2P/P5b/8Af0V8mblg80o44qoNSsc/8flv/wB/BXlXizxV4ttfFF7FpFzMbAbPJ8q2SRcbVzhtpz82e9Z1Kqpq7V/Q68Fgp4yo6cGlZX1dkegamuonUbgxPbiA2qi3DAlhNl9xb/Zx5fTng0eGxqSWUC6s9u98EPnNbgiMtn+HPPSuD0W7m8RW0c/il7s3mmXQu4D5ZhBAX5QAoAfkNxyeR2NdT4fXRm1a48QwzSxXF/CiSLcu0eAnAHltjafw9+/Pxqhz5rz2aV072+5Xvs1q/MvEUXQcqUmm12ehb8V/8iZ4u/69J/8A0nFfIH/Lp+P9a+ufEtzBP4T8TwwzRySz2syxIjAtITAAAo7knjivln/hHNc+zbP7G1Ddnp9mf1+lfrWQzjGnW5ml7r/JHl1Vqj7W7UVU/tOx/wCfy3/7+ij+07H/AJ/Lf/v6K+bNixnkjNfPHxNlSLx5qzyEBR5Z/wDIaV74dSsj/wAvlv8A9/RXgnxC0u71L4g6ldRQS3FrmIxGFCysREgLEjgkHI9sVyYyPNBX7nv8N1XTxcmrXcWtdlqtyz8Mf7cmubqSwe0itfPgNwlwrFjFiTO3HQnjg9OPfPrGlpqw8R3T3MlqdMKp9lSNW80NtO/eemM9Mf8A6/M/AmzT49RtNTtryJb/AMu3UrBJ0IcElgPlAyPmOMZrt9Ei0Ozu7HS4JLhBo3zxSSlhG26N1++flfhzwDwcdMV8hOEpZlGXJpeOvL001v62Xo2TnNvrU7SvtrffRHY2n/Hzff8AXcf+i0q1n3rkfE1zBceFPE8EM8cks9rMsSIwLSEwAAKO5J44r5d/4RzXPNP/ABJ9Qxtxn7M/r9K/TsBlscXFylUUbNLbv80fPzm49D7RHSlrmPCF5b23grQre4nihmi0+3SSN3CsjCNQQQehB7Vt/wBp2P8Az+W//f0V5ko8snHsWi5XOeG/+Q94t/7Cqf8ApHbVsf2nY/8AP5b/APf0VieF5Em1nxZJEyujaqmGU5B/0O2pAdNRRRQAUUUUAFeY+J/EuowatrAg8T2+m/Yry1sY7J0iO9Zli3zHd82V87Iwdv7vkHJr06s240TSbydp7rTLOeZsbpJYEZjgYGSRnoKAOd8IXZ/tnV9Jj16TW7O2htp4bmWSOR0MhlDIWQAHHlAjjI3V1V4bkWc7WIha7EbeSJiQhfHy7iASBnGcDOKZaaZYaeX+xWdtbeZjf5ESpux0zgc9T+dXaAOM8LaLrlibr+3LTTZpr1Sb2/hvZJJJmxgKEMKhUAJAUNx7kk1BpfhXW4v7C03UZ7FtJ0KQPbyQlzNc7EaOIOpAVMBsnBbJA6V3VFACEA9QD9a5zwSB/YNzwP8AkK6j/wClk1dJXOeCP+QDc/8AYV1H/wBLJqAOgbCgnHSvOv8Ahceh/wDPhqOP+uaf/F16K/3G+lfJc86QJuY8k4UDnJ9AK5MVWnT5VHqfQ5Dl2GxiqPEPSNutt7/5HvOk65f+ILm5vorGGLSHjBs5JHxM8gyrB1GQBkcY7Y9cDc8KtqUulrJq9tBBfsP3scDblHJxg/TFed+DHs9a8J6bpz6xLa32nTfbLiK1m2EL5jlVc45UgjI+ld94Xls9Sku9b0/UZLu2vI40Rd+Yk8suCUHYkk5/3RXyeBTebczVnd9H2dtdveV38jzsXCNOU4R2TaV97X6nBfHLj4XaMRwftkH/AKKkrxrwcT/wn/h7k/8AIQt//Rq17L8cf+SW6N/1+Qf+ipK8a8Hf8j/4e/7CFv8A+jVr9iyr/kXVfl+bPIqfGj7JAGOgowPQUo6UV8obiYHoKMD0FLSZHqKAOX8QSapFdW50u1t5i9yi3PnOV2RY5ZcdSKtaM9+dW1COa3hWwRIjbSI2Xdju3hh2xhcfX8sfVVsdH1+7v77WbmL+1WitYYZJv3ccm3A8sY+UnqT61e8IpbafBNoUWo3F9c2CIZnuZN8oEhcruOPY49gK+KwUUs3bSvrLWz87u+2j0+Z0y/h/cYfxQ4+EutkdfPX/ANKlr558FEnxp4f5P/IVtv8A0ctfQ3xQ/wCSSa3/ANd1/wDSpa+ePBX/ACOvh7/sK2v/AKOWv2PJf9wq+k/yiefU+NfI+y8D0FGB6Clor5E3GEDHavlnxTcSS+LdZtrdvnF9N5kg6J+8bj6/yr6lPTPU18xeIkVPFOs7VC7r+dj7kyMSa4sc0opn0/C9N1K84p2Vte+/Q7r4Vrdw6HqEMNvCbZJN8LMx3PMVG4N7YCc+5616J4ZbUJbKGXVoIYL8ofNjhbcinPGD9MV5j4DjtNQ0d4W1We0m06+F7KkEuzdHsGA/qh2nI9q9B8NR2l/q03iOw1W5urW9t1SOLzMwLtOCyrjg5Bz+NfI01fM1Ju2q6Pe2ivtqtfkcWbJRxNSMdkzH+KvHwg1wjr9oT/0rSvmPJ84HJ+7/AFr6c+K3/JH9b/6+F/8ASta+Yv8AlsP93+tftfDf8Cf+JHztbc+4wBtHApcD0FA+6PpS18edAzA9BXzp8ULgQ+PNTwCzs0YRB1J8tP096+jDzXzp8RoEHxI1eflmbygM/wAP7lOB6etceNt7NX7n0XDKm8XJQ3cXr21Wp0Pw5bWYPD0f2OGC4EuqH7WZXKmKLy0zt9SP89ePRdJk1X/hIbyGe1t00pYk+zTK5Mjt/EGXsB/n2848ATWNlpFw15qcls+o3IsoI/MwPM25BQY4c7sZ/wBla7/wpLY2M/8Awj0eqSXt9YQAy/aH3y7WOQWPfr+WK+RpJvM1JR69nt1d9tHp8zmzWChiakU9mS+KgP8AhDfF3/XpP/6TivkDJ+x9T19fevsDxX/yJni7/r0n/wDScV8f/wDLn+P9a/YeH/4db/DL8keBV6H3RgegowPQUvaivmDYYAOOK+ePiU6x+PdVYsAq+WSScADy0r6H/GvnH4mQtcfEjVfMA+zoYtqD+M+ShyfYVx41J01fufRcMylHGPlV24v81q/I3fhTNcy2+vSwRIzKkRt1kJAZsSYz6AnHvivR9Hk1hxpL3dpapPIx+3qjkiIbHI2evzbB9CevWvL/AIf2MVw95eTajc2cVhJDcv5UuxJFUPkSeq+tei6C+nvri6zb6zPcxawFS2haTMOURifLXHBIVifoa+Omk8zi0usej300vttr8ic7jKGLnGTu9Nfki94rA/4Qzxd/16T/APpOK+Rdx84nJ+7/AFr668V/8iZ4u/69J/8A0nFfIn/LY/7v9a/beGf4cv8AEvyZ8vW3PsXwQAfAXh7j/mG23/opa38D0rB8Ef8AIheHv+wZbf8Aopa3q+TrfxJerN1sGB6Cuc8Nf8h7xb/2FU/9I7aukrnPDf8AyHvFv/YVT/0jtqzGdHRRRQAUUUUAFFFFABRRRQAUUUUAFc54I/5ANz/2FdR/9LJq6Ouc8Ef8gG5/7Cuo/wDpZNQB0DfdOemK+Rre3dn+0XGPNIwF6hB6D39TX1y3KH6V8mTTJBEZJGwo/Mn0HvXn45v3Uut/0PruFIQbqzqPSNn5dT1zwpJPY+D9JuNO0dL24ubjybhldY2SLe+XJI+YL6e9dxoQe3vb2wj0xLSwt44mt5YyoWQtv3gKB8u3A+u6uC+HqTWfhy3v9Q1ryba9BhtrSXYqxSeY+NrH7zN1x6568Y7nwpFJYWL6bdat/aV9bqGmmcKshDFipZQeBgED12mvlcuSWa20er/m7P5e7t89LnjZjLmrVJLrJ/mcB8cf+SW6N/1+Qf8AoqSvGvB3/I/+Hv8AsIW//o1a9l+OP/JLdG/6/IP/AEVJXjXg7/kf/D3/AGELf/0atfsuVf8AIuq/L82eHU+NH2UOlFA6UV8objPSvmrxDr/iB/F2qxQ6zqdvaW99MipHdOm4K7DAweFGMe9fSpzg+uK+Y/En/I06vn/n9m/9DauPGzcIpo+k4Zw1PEV5KpqktvmekeCr/UdX0YJqelvcxWo822vbiZZWnk3N0DcqV6Ak12fhWS4vNO/tC+0tdO1CdQJ4d6uyhSwUFwOeDkem6uF8HOuq+ENLh07XktZrO4M9zHEVZmjEj/I4Jyqt6+3eu68P/wCk3d5qdvqi3lhdJEII4yGjjKbwxVgedxIz6bfy+Sy5f8Kuqs7v+a+z76e9v8tLbHn5jy+2qcm13btuc98UP+SSa3/13X/0qWvnjwV/yOvh7/sK2v8A6OWvof4of8kk1v8A67r/AOlS188eCv8AkdfD3/YVtf8A0ctfs+S/7hV9J/8ApMTxKnxr5H2ZRRRXyJuNOcGvlnxXcOfFur29vgym9mLMeRGN7cn39BX1KTj3r5g8QQpH4q1oqoBfUJ3Y+pMjVxY5pRTZ9PwvCc684xdlbV9bX6HZfDvz9M8PKLDSBfPc6l5V3LvVCkRVcuSR8wGT8vua9G0Oa5h1240yPR1tdLggVre5jdQkjE8oEA+XFcB8OWW30m8km1ZbdLqcWsELlVAl25yufvMQwG3/AGe9d/4X/wBCSPSbnWF1DUbeLdM7FRKQW4ZkByB2H0r5Ck75om0m7/3vv7abfM4s2jGOJqRjsmYPxW/5I/rf/Xdf/Sta+Yv+Ww/3f619O/Fb/kj+t/8AXdf/AErWvmL/AJbD/d/rX7Zw3/An/iR87W3PuQfdH0paQfdH0pa+POgbjFfOnxPnW38d6ozAk7ogAOST5acAV9FmvnT4jwD/AIWTq87MWJ8oID0UeSmce59a48bb2av3PouGef641T3cXr21Wp0Hww+1SaFfi50yO48if7TbMWU5k2AbFz0YBVO7/b9q9G8MmS6ij1C80tNP1CeL9+mVd1weFLgc8c+2a858BQSXejD7PrBsjZ6h9puY0CkyRbQNrZ+6pw3PsfTj0HQIZJtbudWi1r7Zp11AggtowrRR7erK4+9n/PbHx9KzzRPRar+b7u2u/wAjmzWHJiaiu3r1H+K/+RM8Xf8AXpP/AOk4r4//AOXP8f619geK/wDkTPF3/XpP/wCk4r4//wCXP8f61+x8P/w63+GX5I8Cr0PuntRR2or5g2GEV88/EogePtVLEAAx5J/65pX0MRz6kV83/EyJ7r4jatGwK2yGLvy58pDj6fzrjxqTpq/c+i4YqShjJcqu3Fpfet/I0vhpqN99ou0tNJN7azzQxTymVUESESbnKn7w9u/PtXqOjtP/AMJDLYtosdtp9kqNZ3Ksu1yUIYKgGUxkj8/WvOvhrPDFDqtsb6OzmuBHDAzMoJciTGwH7xHXFeg6JDLHcadYPr/2u9075rwfL5k4aNwu9QcqMkMPXb3618bNp5nGyS1j/N5a9v7vz26k53GUcXUU3d6fki14r/5E3xd/16T/APpOK+RP+Wx/3f619d+K/wDkTfF3/XpP/wCk4r5E/wCWx/3f61+38Mfw5f4l+TPl6+/yPsbwR/yIXh7/ALBlt/6KWt6sHwR/yIXh7/sGW3/opa3q+SrfxJerN1sLXOeG/wDkPeLf+wqn/pHbV0dc54b/AOQ94t/7Cqf+kdtWYzo6KKKACiiigAooooAKKKKACiiigArnPBH/ACAbn/sK6j/6WTV0dc54I/5ANz/2FdR/9LJqAOgbkEH05r5FgheWQXNwuG/gi7IPU+/8q+um+6T7V8myypDGZJCAoGTmvPxza5Uut/0PruFIQk6spvRWfl139D1TwQ9vq2g2+nXuiTzR6eftMNxNEDFJJvcjyyerDp+f49z4Skj1C2k1g6XNp13eIqzR3EeyXCFwu4fiSPY1xvg5dRvfAuinTbuKzkW4MlwskYkLw+Y+Vx/CWGOa7XTriWHUrye51CA2M0cYtohhSjDfvO7+LOU+mPz+Wy7XNeVd3pd9E7+Wr1+R4eZ1Ie1qzb0u9Xpuzz/44/8AJLtG/wCv2D/0VJXjXg7/AJH7w9/2ELf/ANGrXr/xtuIZfhnpUSSo0iXsG5QwJH7qTqK8g8Hf8j/4e/7CFv8A+jVr9lypNZdVv5fmzxHKMpJxdz7KHQUUDoKK+TOkYehr5X8UF7zxdrUK5WBL+dZG6FyJGyB7epr6oPc18x+JD/xVWrk/8/s3/oxq4sdLlin1Pp+FqXta84t6W189djvfB6WWjeFdNurfQ5LmfUJvstxJbxBiE3uA0n+wAMflXeeGRbWE93o1lpj2dnZRxNE4j2xSby5IT1II592ri/h1Hqa+H/Ok1KA2EyslnB5QzE4dwxLfxZbt/Lv3PhaK+g01YNVvYry/RQZZY0CBslsHaOnHHvg18nl8l/atm7u76vs/l7q0+eh5uZW9vU5duZ/mc38UP+SSa3/13X/0qWvnjwV/yOvh7/sK2v8A6OWvof4of8kk1v8A67r/AOlS188eCv8AkdfD3/YVtf8A0ctfs+S/7hV9J/8ApMTw6nxr5H2ZRRRXyJuNPQ18s+LLhl8V6tDCoadr2Y4I4UeY3J9v519SkEjnpXy/r9ukXizXHUHdJqE7MTyT+8b9BXFjmlFNn03C8akq84wdrrV+V+h2Pw2tLWbRbq3u9Mku2s7oX0c7oGBl2gYTP8Y2DjsGWvRPC62t9INeOjvYX95FtlFxGFmCq2Arfln6YrhfAEOpT6Cv9m30VsI9SD3QeMOZItq5Uf3SfX2rpr+XUrfU3uTqsX9m3ARLW3RcMHCsWO8H5sgE49vbn5TDfvM2jHms2+7+622r1+R5fEFWOEnWmo3UehX+KpH/AAqLW+Rnz04/7e1r5k/5bD/d/rXuvxFuZ38A6kjTSMrNESCxIJ85D0+vNeFf8th/u/1r9tyCk6dKSfVxf5ny2Fx0cZBzirWbX3W/zPuRfuj6UtIPuj6UtfFHrjMda+dvidKlv461aRzhQYvqT5acD3r6K5zx3r5x+JFvv+JOqzSNuVTF5a9l/cpk/WuPG29mr9z6Lhh1FjGqa1cX6LVam78O7j7LoJeTR5ruTUtQ+ySmGIP5UOxceYf7oLMT2+Y16L4blhs9Yn0Kz0eezs7KBTFOIwsEm45Koe5B6++fx4j4aJdjRNRK3ccccsmy3VlBKS7OW9wQV+X/AGT616B4bS9gtYYNRvIru/jj/fyogUMSeDtHTj88V8fSmnmi9V1fbftotPmc2bRccTUTd9dyPxX/AMiZ4u/69J//AEnFfH//AC5/j/Wvr/xX/wAiZ4u/69J//ScV8gf8uf4/1r9j4f8A4db/AAy/JHgVeh909qKO1FfMGw0jj3r55+JP/JQNU+sf/otK+hSTzgZr5x+Jyy3PxF1aDBSEGLc/Qv8AukOB7ep/CuPGxvTXqfRcM1PZ4xtK7cWkvO6NT4axWd6urXU2ni7awMU9uQgZvMUSfcz36AH1+lej6FLbyXtjqyaFcWt7qvyXLPEFkiCo5Xze4HyhR7stedfDe21Jprg6beR20Ec0LXKPEG82MCT5Qf4T7/8A6j6fpMeor4iuLmbUYZdMmVBaW6IA0ZCncS38Wev/AOrn42cl/acVfrHq/LTtv73yJzuM1i6nO7vT8l/ww7xX/wAib4u/69J//ScV8if8tj/u/wBa+u/Ff/Im+Lv+vSf/ANJxXyJ/y2P+7/Wv2/hj+HL/ABL8mfL19/kfY3gj/kQvD3/YMtv/AEUtb1YPgj/kQvD3/YMtv/RS1vV8lW/iS9WbrYWuc8N/8h7xb/2FU/8ASO2ro65zw3/yHvFv/YVT/wBI7asxnR0UUUAFFFFABRRRQAUUVHIzLGxRN7AEhc4yfTNAElFcpp3i2U2viCbWdPXTzohzOsdx5+V8lZcg7V52sBjnnvTtK8UXtzqlrY6tox05763a4syLgTbwu3cj/KNjgMDjkdeeKAOprnPBP/IBuf8AsK6j/wClk1dESB1IH1rnPBJH9g3PI/5Cuo/+lk1AHQMRtOfSvkSKN7txNOpEYOY4z29z7+3avrtiMMOOlfKDsI0LudqqMknoK8/HSa5bb6/ofXcKU4zlVc3orO3R77+h6b4RTRtB8O2WrSWc73eqyiylkhVpN37xwu4ZwoAHJHtU2p3uneFHttEsNPnh0uxTdPKdzLD5rEo2SSWXIfce2V98TfDSXV5vDscki2i6Y0bfYxhhLv8AMfcX7YPUY7YrTkXUpNIs010WjXrCQTC2BMRGeMbufu4z75r57Jub+2UnLW7636O2n91XXlc+O4tqQ9hXk1dOX4OS6/ijz74rjPhKH/r7T/0F6898Hf8AI/8Ah/8A7CFv/wCjVrr/AIl2V5ZaMQs/nafPeCULIcvDIdxKj1U5J9iMd65HwcD/AMJ/4f4P/IQt/wD0atfs2Ef+w1L9l+p4mUQUaCSd1d/mfZI6UUgIx1FGR6ivij3hrHjpzXyx4od7nxdrVvEcKt/OJZB2+duB/U9q+psjb1FfMniJNvinV8LjN9OTgesjVxY52imfT8L03Urzjeytr567Hb+C10XWfDlnpd1Y3EkmiyfbFOx1XfvcqUIPzEc5Hr613nhF9N1OOfxFY208UmpLGspnUq7CMuq5UnA6t06giuW8J/2sfBWi/wBkmz/4+m+1faN3+p8x9+zH8XTGeK7fR/7Q/tW/+0G3+wbIvs2zPmbvn8zfnj+7jHvXymWybzTR9ZaX+/S3V2fyPMzJJV6iS05n+ZzHxQ/5JJrf/Xdf/Spa+ePBX/I6+Hv+wra/+jlr6H+KHPwl1sDr56/+lS188+CgR408P8H/AJCtt/6OWv2bJf8AcKvpP/0mJ4lT418j7LopMj1FGR6ivkTca31r5c8W3Hk+KdVjQb53vZtqf9tG5PoK+o+AM57V8v8AiC2WPxdrkoyzS3853N1x5jYA9hXFjrcqbPp+F1N15xhpdavtr08zrPh5/ZukaLLPeQXFxdareixd41ZxgoCAQDhVG5uevNbmo2GiNZnwhZ2t3bLp2yeKQK2I2bcQySEnLAk/mR6iq/wx/tAaRqOz7P8AZvM/c7927zdozu/2MbOnPWukc6kNBsxrBtv7QJPm/Zs+Xn5sbc89MfrXzGDnzZvFS7rr1to7W6K6+Z4HFd6UMR7Ppt/w55r441Ix+E7/AEq+JF2scBSVgFW6AePey+hDZyvYYPSvJP8AluP93+te2fEeGKbwTeu8Ydo2jaNiMlSZFBI9OCR+NeJkHzx1+7/Wv27JrqlK/eP6nyeTSjKjNxVved/Wy2PuNfuj6UtNBGByOlLkeor4U+kEx+NfO3xNkjh8d6q7kBR5Z/8AIaV9EHHrXzl8SoHm+JOqySEGFTF5aDpnyU5Pqc9K48ak6av3PoeGZyjjHyK7cX8tVqzY+Hcenavos51KwmaXS7wahb4D/L8gCn5Ty2UY7fda9F8KQ6TqF4/ieys5obrUoFEjzBlcqpAAKk4HTt1964vwANXGhRHTPsnl/wBpYu/tG7PlbV3bMfxemeK6a/8AEV/4b1eW61FLU6NM0UFuyFhIkjAktKcEBcrgH3HvXydBzlmiUXbXa/Tqrebs/kcmcyVKtVlN3s9Xb/I1vFZ/4o3xcP8Ap0n/APScV8g4/wBE/H+tfUniTXvO8KeIIhb4+02k3O/7uYdvpz0zXy4VP2P8fT3r9iyOnKnTrcy+zL9D5mni6OJ1pO9rdGvPr5H3R2opMj1FGR6ivlT0BDwa+efiT/yUDVPrH/6LSvoXdjvXzh8TTJP8RNWt49yqhi8yQe8SHA9/ftXHjY81Nep9FwzVVLFydrtxaS87o0Ph7q9hFJqGnXUFxPHfyRWgMURZPmEmQzDoMdT2z7HHo3h+DRYtZh0KzsZ420ILJCXV9i+ZG6/K5PzHa7A59fbji/hZFJDaa1HZrGsojjEQkzt34fGcc4z17126ajrOl6XYXt9bw3E8WTfxWYJZhtYARBiBneU6npux2r4+TTzNRhdax69e9rdrr5meezccVUlVa0s2+i0Rf8V/8iZ4u/69J/8A0nFfIn/LY/7v9a+ndX8VWGr+BtfntUm8u9s5im5QCp8rYQwzwQykEV8yEETng/d/rX7dw3Fxpyv/ADL8mfKOvTqtqDvbfyPsTwR/yIXh7/sGW3/opa3qwPBBA8BeHuf+Ybbf+ilrfyPWvka38SXq/wAzsWwtc54b/wCQ94t/7Cqf+kdtXRZHqK5zw1/yHvFv/YVT/wBI7asxnSUUUUAFFFFABRRRQAU1mKqSAWIGQB3p1FAHmyaXretP4wsrzw/d6fBry/ubia4t3WIi2SIbgkjH7y54B4rVsLbXNX8R6PqGqaV/Z0el20qtmdJPPmkCrlNpOEADHLYJyOOK7SigDO1LRdL1qOOPVNNs75YzuRbqBZAp9QGBxXP+B9K0+Pw/NGlhbLHHqV+iKIlAVRdygADHAAAAFdjXOeCP+QDc/wDYV1H/ANLJqANY6ZZYP+h2/wD36FfLUWr6tdyJP/aV7HAOVUTsC/ueenoK+rn5R8enWvk8kKCSQAOpNcGOm48tvM+s4Ww8K0qntNlbT7z1Hwrc6V4i0S1sLjUbn+0dPb7VceU7oxXe+1XbHzKRjIz6VJe63o+bLXLGaaTTNTBiM5JEMLI21fkIBTcSwLdMqueual8IXV8PAui3GkWEV2Zblo5/McR7YvMkDOD3x2HvWnrKTz3c1lcWMA0zylELZB80tnzFK9gML9c/l8/ks5yzdQT6y0bT2Turebtbsu+58jxVOEKFeX2ebppo5aWZw3xLvbrT/DMU1pdTW0n2pQXhkKEja3GR24rzzRvFeo2XiHT7q+1PUJrOGdJLiHzmffGHBYbScHIyMGuo+JUeo22jGGZ/tFhLdiaKVj88RO7MZ9RySp7AEHtXnlr/AMhK3/3h/MV+w4SnB4KpJpXSX6niZZeGHvzc2rPoqP4q+E5Y1f8AsK8XcMlXtYcj6/PXe6fHpupaba30NjCI7mJJUDRLkBgCM+/NfK0kjXjNBAxEYOJJB29h7+/avqTwgqx+DdEjUYVLCBQPYRrXwdCrObamd+Er1Kjan9xf/s2x5/0O3/79Cvm3xNrGpf8ACU6tY2V9cRLHeSoxSQhYlDkBVHTp0Havpxjhe2a+YvESKnirWcADN/OzY7kyMSanGz5Ipo+z4ZoKvXnB7W1+/p2O78KnTNM8OWV/q+o3sk2qyCzQTzSSrv3Mq7RztJA5b27V2vhmz0i3N1occj3lxp6RtK13mWQCQuVLORznB6dABXL/AA9m1WXQRFNpsH2GFC9nOZgWmk3vuBX+HB4z/PtvWWr6tbabaz39hb2eoTAi4iRvMA2k7QGB54Oe+M18xlkqtXNfZuV9X9pNbNrTyV0/Ox4ud16ODlWqSVoqT2XnYo/EVRZfDHWLu0UW9zHMAk0Q2uo+0KvBHI44+leGeEdc1e58W6HDPql7LHLqUEciSXDMrqZVBUgnkEcYr1T4katqE/gS+tlNuLZ3VpwyEuQZQw2ndgfNjqDxnvXjfgr/AJHTw9/2FbX/ANHLX7DlWG5cDUc0r2m/wjY8ShjKWK96k9E7P1R9gf2ZY/8APnb/APfoUf2ZY/8APnb/APfoVayPUUtfInoFI6bZAE/Yrfj/AKZivnLxPrV7Z+IdTiivLkAXkqRRJKQOHOABngAflX0s3XGK+XvEEGPGGtzuS8j39xgn+FfMbCj/ADzXHjWlFM+l4ZhKpXnBJPTd9Nfz7HZeA/s+r6ROmrapeNeWN2L6TZK64i2gBCf4o8o2V/HvWzfafp3iDTBrmjarfxLebTA8UrrHGUyMiI4HJGGBGDj8ao+AZtSg0BP7NsYrkSakEumeQIY4tq5Yf3iPT3rpdRk1EajNbNYQx6XGqG3uEkG52wdylOwH+evHzOCqVJ5vGLlo3tdWt1VvN2a8u54XFX+z06/s947HA+LNbntvCuo2pna21a3jgdpImMe/cyBmQ9SuSyn079a8vHiLXPOA/tjUMben2l/X616r8SLO3n8G3NxJEDLbtG0Td1JdVOPqD/nFeL/8tx/u/wBa/aMpoxdKXMk9Y9PU+VyioqlGco3+J7+i28jtp/EGqoRDDqF087D5VMzYA9W56V7t8N7SO58A6ZNfKt5ct5pkmmUMzHzX7n06D2Ar56jiSxheWV8ufmklbqx/w9BX0T8LJGm+HOlSFGTcZiFbrjzXx+lfneGk3Ukuh24GTdRpO6tv5nUf2ZY/8+dv/wB+hXhHxAv7ix8a6lFb3UlvbxbNqRyFFUeWhPA4HJJr6AzhsZ69q+cfiZA1x8R9V80D7OhhKoP4z5KHJ9h6VeM/hrW2p9pw4m8VJKPM3F2vtutX5G74F1Sxk0eS41q9uhJqd7/Z9oJHds/ICpUDOwkufm46LXTb9Isw/h+1upbi+sVUzGcs0u1wSCzkfMenQ8cdKyPho92dF1EJZxSRxSb7dmYDfLswVx2AAXn/AGj6VuX2oywaHp0+uQQ2F9dSrDIiPvVZMOVXcPUA9+pxzmvl8HVvnEU27XWnMrXtpp2S38/uPH4qpzhSrxj8Svsvyschrl7ceHtLuIGa4eze2kWK9MjPJHMdxCueuOVCt6jnrmvIv+Ek1v7OW/tnUc56/aX9frXu3iFQfDeqKQD/AKLKef8AdNfOx4tDxzn+tfsmXUY+zq3Sfuy6eh8lktd1acm9/dv56LU7ldY1GytSZtWvWxyzvOxJPtz+gr3f4bRpqXgHTbu+tkkuJPN3NModziVwMk98AV87wQyXMouLhdu3mKI/we5/2v5V9HfDF1f4faYVIYZmGR6iVwa/PsLK9Rpu7PRwUm6rTd3bU6X+zbHOPsdv/wB+hXhfj69u7TxtqVtbXM0ECGMLHE5VVzGhOAPcmvfuQM183/E+SST4iarbW5IYGLzJOyAxJwPUmtcYm6as7an2vDcoLFS51f3XZd3dGx4EaHVn1G41LUb0ppTRXDbZ22EYcsrjncPlBK/SutEmiSRjWbO8uJF1fZHaxuW8oFVLHYhHyEqjE5xnHvzx3wz/ALQspJ4NMsI54HngW7d5tpijIfLD+8f8+47fWr/VLKHVGbR0k021WA2rwyAySAkCTCdtoJwO+MDrx8oq0lmsFzO146cy2urq3rZ+l/U4uJ6c714pJOz22T5dPu/M5fxVBqUNlcajpl46NHbvHLAzkKUwTvX+665yD3xj0rx7/hItc84j+2NQxjp9pf1+te2ardw33hLULm1kWSKS0lKMOhG014B0uD9P61+35RSpyptuKfvL9T4TJa1WVOSqbqy89lues6N8Sdbg0i2hm07RpjHEiLLJbu0jgADc7b+WPUnjk16f8O9Zi8YaJdX11p9grw3bW48mDCkBEbPJOeWI/CvnWB3v7eOKIssCKqyOOCTjlV/qa99+DMax+ErpEAVReuAB0H7uOvz1zk8VOMn1enbU9XDVZuryyfy7Hff2ZY/8+dv/AN+hWJ4XjSHWfFkcSqiLqqYVRgD/AEO2rpq5zw3/AMh7xb/2FU/9I7auk9M6OiiigAooooAKKKKACiiigAooooAK5zwR/wAgG5/7Cuo/+lk1dHXOeCf+QDc/9hXUf/SyagDoG5BHrXyFzqB7i0B+hkP+H86+vn+4fpXyaAFAAAAHQCvPx0uXla31/Q+v4Upe0dVSfu6XXff8D1PwOlvpPh+2v73W5oob7/RYLaWUCKN/McDyx2Y9f88T3d9ZaAdN0C61S4vrpQ4e5uW3sCxyiyN2LDcFz12fSofh/cnVfD0FtcaJ5tnaZntruXY6SyCR/uA/dZTkZ/lxnQu4o9c0iO41TRFsri8QpcW8m1n2qxChmAGcZJHpur57Juf+2Unvd9uzt57Xv52ufHcXOl7Cu5axcun+Lp0/zOH+K/8AyKUP/X0n8mryeFC99FGSy7sDKnBGT2r0X4lSajDoxtLtPOtnvBNBcoMAL837th6jdwe4HqDXnMTMt7EyDewwVXOMnPSv2fCO+Bqei/U8HK6bhhrXT1kdLI8dlAkcUeW+7HEvVj/h6mvqDwgGHgvQ9+3zDp8G7HTPlrnFfLsEJgVp7iRWlYZZjwFHoPQCvqHwg4k8F6JIpyr2EDA+xjWvznCW5pW+868vtzStr5m0c7TxzXy14ruHPi3V7e3wZTezFmPIjG9uT7+gr6lJx718weIIUj8Va0VUAvqE7sfUmRqvHNKKbPvOF4TnXnGLsravra/Q7/wYlpf+EtN0+DXZba40yc3VykEwDlfMdtsn+y2cn8Kl126nFxD4k0e/k1TS7iPbJaRtuVVQ4Lxf7QOcr3x6gU7wmx07wnpVxZaIt3PeT/Z7qSMIjLH5jje5IywX0961LsfZr1tNt9LWysbWNTBJGFWOQvksFUDjaQM+u78/m8lvLOVZ9ZdV2d/Pe1vK58txbKNHD13ZNKVreXNY5HxpcRXXgC8uYX3xSxxSI3qpdCD+RrxO2LgxGIBnEo2gnAJ3cV67490+5ttD1C7tJsW0/lrc278jKsoV09DwqkdCOeoryO1ZY3idiFVZQST2G6v2fBNvA1Lr7M/yifN5PGMaM+R3Tk/yWjOkhhS1jeedw0rDMkh4H0HoBX1B4QkEvgzQ5FztfT4GGeuDGtfLcatfFZZFItwcxxnq3uf6Cvqfwmc+EdG9rGH/ANFrX51hPjlfc9LA/HK71/rQ1zyK+XvFc6W/iXVmbJJvpgoHJJ8xuAK+oeNtfLniC3/4rHWppCGb7fOIwOiL5jdPc9zVY63Kmz7vhd1PbzVNatb9tdzs/ho0dlo13PqWrNbNqF0LS3t94Co+0EbM9XO7r/sj2rb1W0T+xoNAtvEMs2s6c6ziWaTfKSQ2PMH8SkMRj0x3xWd8OV+06TeRzaUtzHbTi4t5ZArAy7cbVz91gFB3f7faukH+m6ZBqtzo66dqFwAs6sFaUAbsKzgZI7j618vg+WWcRv3W1t7aedrXv57ng8VuVKniOV3avvr63OA8aaktz4I1S0mKx38KW7Twg8KWeM5U/wAS5JGfUGvH+k6/7v8AWvZfiTp1tceE7i9dP9ItynlupwcNIoKn1HOceoBrxrj7QPTb/Wv2/J7+ylfvH9T5HJnB0JuH8zv62W3kdHHG97ItxcKVjU5iiPb/AGm9/btX0h8MnB+HumlcEZm6f9dXr5wmme4la2tzjbxLKP4fYf7X8q+jfhbEkHw50qKMYVfOGP8Atq9fmuH/AIrv9x34H+LrppovK52BAPNfPPxKIHj3VSxAAMeSf+uaV9DEc+uK+b/iZE918RtWjYFbZTF35c+Uhx9P51pjUnTV+59xwxUlDGS5VduLS+9b+R0Hw7MGqaGzpq1xY/2fqH2qVI5Agmi2qPnH9wlWH/ATXR6hYWWtQ3GpDUpdQ03UURUti4aBAoILIOxJ6nrn8MYXgCSSz0Rfs2jfbBd34triRCq+VFtHzNn7yjJ49z689DfXy2F5/ZH9lCw0+Jo47O4UqsUzsrMY0QdCMH8vpn5jAu+cRttfutuvne9reXkeJxZzxpYh395dV38jktZvG0XRbnTLxpZIJLKVYL2Q53SYfEbH+9t2gE/eIPevED/x6/8AAv619D+I40l8M6mrorgWshAIzyFJB+oIBr54x/ouPfH61+zZYrUqq/uy/Q+QySoqlOUrWfu389Fr5HTvK93KbeAkRKf3so7f7K+/v2r6Q+F0SQ/DrSo41AVfNAA/66vXzo8kVlCkMaZc/LHGOpP+Hqa+iPhaJB8OdKWZw0n77cVGB/rn4/DpX53hfj02/rU9LAfxHbRW+/Xc7I55xXzx8SBj4g6qcDJMeff90lfQzYAr5x+KEzH4iarbQYMv7oluoQeUnJ9/QVrjYuVNJdz7nhirGljJSl/K7ebutDX+HOoWER1WxuNRFrPd+VBDhwr73EmNuf4vT8PWuxMNvHZQ6SmuT3V7pOx7lXmBklDKQvmdyPmDD3Va474YWVukGrTGxS9nt/LnhDqpbzAJMEM3Rj0zXV6pqhsdAi1ufw5JBcXhjF/5aq0sCDOGcgZcLgD2B/CvkouKzaHLtzR7b6fO1r/OxwcVxqTeIUl7zi9F/h0RzHie1vbHTL2404K1q9tJFPacKBu3EyJ/tAsSR3HuBXiJ5nOfT+tfQeszR3HhbUJoHWSN7ORkdTkMChwQa+fT/wAfLfT+tfu2TJKk7fzL9T4HJKkpU5KS1VvXZbnRRziCxt44l3zPGu1B9OSfQe9e6/BSJofCF6JJC8j6g7Me2fLj6DsOK8JsYY7WyWeR8syBmdj0GOB9BXuvwUmNx4PvZShRDqDhM9Svlx847d6/N/8AmLnba7/M9LCfxny7a3Z6bXOeG/8AkPeLf+wqn/pHbV0dc54b/wCQ94t/7Cqf+kdtXWewdHRRRQAUUUUAFFFFABRRRQAUUUUAFc54I/5ANz/2FdR/9LJq6Ouc8Ef8gG5/7Cuo/wDpZNQB0Dfcb6V8hsxvyY0JFsPvuOrn0Ht6mvrtjgEjtXyeiLGiqqhVUYAHQCvPx0uXlfXX9D6/hSk6rqxb933b+e+np3PWfCUM154M0m00zV47Ga1n86dERZGaLzH+QqT8ob19quatqMKazbyNqqTWuox4skRQY1eP7+HHUtuHH+yayvCH9m6T4W0/VI9Imu7rUpTZzS2sXmNt8xxl+eEGME/Sr+p6XpRtj4bh0t7axtUV42ClULOWOY267lK5J7EivnskT/tiPL3lul2d9d97W8j47i72fsK6l8PN0/xaeXyOM+K//Ioxf9fSfyavKLZlTUIGYgKCCSewzXonxKvL0aObC+h/5exLbzxj5Hi+YbT6Mu4D36+ted26q+oQowBViAQe4zX7NhHfA1PRfqeBllN08M1LvLY3gG1Jgzgi1ByqngyH1P8As+g719T+EiT4Q0bP/PjD/wCgLXy3cXDGT7NbY84jkkcRj1Pv6CvqHwgu3wZoa7mbbp8C5bqf3a8mvzzC35n08jtwF+Z9FbRG2ehr5Z8WXDL4r1aGFQ07XsxAI4UeY3J9v519SnJHNfL+v26ReLNcdQd0moTsxPJP7xv0FPHNKKbPuuF41JV5xg7XWr8r9D0P4d2t5p3hqOa818G2uwYrSCaNF8qXe+SrE/MWPIX8O1Savd6hoGn6bHeXy6ubZZP7RmVAsyKxBR/LXPygBge5Az2NQeC3sdY8P29je6Ncy/2W32qKeWH93JJvcjyzn5iOhHrWsslrqNvFrcem3FjcX6YlS5TZIRGSF3Ln3OPYivnMmUnnKb0d30W9ny+eqvfz31PluLeWlh691dKVrXe3Ml9/mcx44mjuPAd7NC6vFIkbo6nIYF0IIrxOzGZIVIBBmUEHv81es+OrO8sdBvmtXVtNnESyQNx9nKsoVo/9k7QCvqcjvXklurOY1VyrGUAMB0O7rX7NgnfAVL/yz/KJ85k8Ixoz5XdOTfpot/NHSTzSSSG2tjh/45OojH9T7V9Q+EFEfgvRIxk7NPgXLdTiNetfL5MOnWwABPOAByzk/wAya+oPCBY+C9DZ12udPgLD0PlrxX51g93bY9LL93yrT8zaI4Oa+YPFUqQeJNYd2+UXs31J8xuB719QH/8AWa+WfEVuz+M9ZmmIbbfziJR0UeY3P1P6VWOS5U2fd8LuarzVNatfdrudv8Oor++8O/uNVTT3g1P7RcQiNZC8GxRsbJ+Xdg/N7H0rc8RWerXrtqel+IFe2Yxva2gjUwllVgwZxyytk/Q4PYVi+BJbWw0ZpX0q4vJdQvRYvJBFv2JtBBfnhAWbJ966N3tNPkPh6w0u5tbayVXjl8rEDbskqrZ5OSc/jXzGBUpZvGy69lt113una3Wx4HFb9jTxGt2u+t/U4vxrfLeeAtSQ4juolg8+AtlomZ42wfXr16cGvGwMzqB/dx+tex/EjTIJPDFzqK7o7iIRqWQ48xDIvyv6gEgj0Irxz/luuP7v9a/bsnv7KV+8f1Pksm5PYTcP5n8nZfgdQxh06BUjUk/dRB95j/nqa+iPhYZf+FdaV5zL5uZi23oP3z8fh0r51t7dkZrm5ZWnYcn+FF9B/jX0V8LJkn+HelyoSVYzYOPSZxmvzXDW9rLr5ndgP4rtrpqzsiOPevnn4k/8lA1T6x/+i0r6FJPOBmvnD4nLJc/EXVoMFIQYt7dC/wC6Q4Ht6n8K0xsb016n3PDNT2eMbSu3FpLzujpvhjMW0PUJBqawRz3BtrZHVRiYICXUn75O5Rt/2fet/UdOjuvDsWiatqKandw7WnlAVJNxyVfaDlCOx9q534e2+n3Wizx3WlyXB025F7buIsgPtwFTnlxszj/aWuixp11bw6+unNY32p4RxcJsmbarYVhnrhSfoPavlsEoPOI3Wl10W9tNd7NXv5ni8WurGniHf3l2OV1XUG07RLrSdSnaWd7GYxXTLtWYjf8AKf8AbChSfXJxXhx/49Sff+tfQnie2guvDOpLcRrIFt3kAYZ2lVJUj3BFfPeMWvH97+tftGWK1Kqv7sv0Pj8knGdOUkrP3b9tlt2Oqt7fyd9xcOrTsMsx4AHoPQCvor4VzLP8OdLlUMFYzY3DGf3z8185IG1Fg7AraKcop4Mh9T7eg719JfDL/kn2mY/6a/8Ao16/O8L/ABXfe33Ho4H+M+be33baHWECvnj4joF+IOrMAMs0RJHc+Ugr6IJHevnL4oTlfiFqkMQDTN5Zx2UeWnJ9q1xqbppLufdcMThDGSlL+V/fdbGl8Ore7ubm7e11X7FHaywS3SeWr+dHh/lJP3Rwea7udJvPvb9tajudOvFjWztVVNqEDLFXBy+cE/n6V598N5obA3lnNp9zfDUZIbaaSKPeFDCTLP8A3Uxx9K7DULrSNKtLixOkXNraaH5TwXDQHyh5nyEo2ecB23Htz6V8nFWzWD6Xj0W11rffe3nbyODiv2lR4jT3nF6f9u6HNeIobrRtHu/sFur6Y9rJHJboMNCzbz5i+q5b5h2ABHQ14nn9+T7f1r6E111fw1qTqwZGtJCGByCNpr58bBuWx0x/Wv3XJlam7fzL9T4HJKjnTlzLXS776LfzN6zie7gha4XbCirsj/vED7ze3oK99+Dbq3hS92kMVv3U47Hy4zj9a8Cimea3htrY/P5a75OojGP1PtXvXwWhS28HXcaDA+3MSepY+XHkk9zX5s/97lfu9Pmenhf4+vnZHpdc54b/AOQ94t/7Cqf+kdtXR1znhv8A5D3i3/sKp/6R21dh650dFFFABRRRQAUUUUAFFFFABRRXL2XjfT76/toUtb2O1u5ngtL+SNRBcSLnKqd27na2CVAOOCaAOornPBP/ACAbn/sK6j/6WTV0dc54J/5ANz/2FdR/9LJqAOgI+Qj2r5Ekle6kMEORGD+8kHb2H+PavrtuFJ9BXybFEkMaxxgBVGABXn46Sjyvrr+h9bwrBzdWN7R0v3e+n+Z658N7bVLfw7Hm4tf7LMbLaQrGd8b+Y+4se4J/yO92ae7tLbTLHW763l1WVZWzEuxXCkfdB9AV/WsPwe+h+IfD9npN2k0s+kyC+O0OqqwkfaQw+934/wAOLmoWmieLbGPXLRZ0a+Ubbj5kkRomYIyg/dIJbp196+eyaM/7ZUmrO7+z5O2vmrvzaPkOLY0/YV4y0jzdP8S6eRyfxX/5FGH/AK+0/k1eTQhjexKh2ucBWxnBz1r0f4l6lK+inTruHyp1vBJCy5KSxfMAwPZhkBh6nPQ15xCwjvYpCCQuDhRknB7V+zYR3wNS3l+p4OV0pU8M4vvI6QCHTbUkknnJJ5Z2P8ya+ofB5J8F6GxTax0+Alc9D5a8V8uwQvJILm5GH/gj6iMf1PvX1H4SwfCGjNnINjAQR3+Ra/OsLbnl1Z14C3PLq+rNhunWvlzxbceT4p1WNBvne9m2p/20bk+gr6jxj8q+XvEFvHH4v1yUZZ5L+c7m648xsAewq8dZRTZ95wupyrzjDS61fbXp5npfg6DV28B6ElheW6SR3LPdtNGW3xeY5ZVx0PTH0qTxTqOoaPqyXd2YpNBkQKGjU77Z+7P6qcjkdMdOprN8IR6HoPh+01O5inF1rUosnaPe4Y73VeBwowOorVEGk6dGPDOnwusWnxgvHKGZdspYjlvvdGz6dK+byWMnnCce8teVdnfW/R2S8n02PleLXCGHrqSulK2+vxLr36nP+O2V/A1+6MGVljIIOQRvSvD7Z/LaNwpbbIDtXqfm6CvWfG8F7pvh68ghUSaVKkSIg4NpsKAD3UhfqCfevKLP/Xwf9dh/6FX7PgnfAVL/AMs/yifOZPT5KNSzunJv8Fv5nRW9uxf7Tc484jgA8Rj0Hv6mvqLwkyt4O0RlwVawgIPqPLWvlpmOpMQhK2oOGYcGQ+g/2fU96+pfCSqvg7RFUYUWEAA9B5a1+dYT4nff8j0sDfnlzb227GyRwa+YfFMiQ+JtYdyAovZuv/XRq+nz+lfLHiOF5vGWsyT8Rpf3AiTqMB25Pv6elVjknFXPu+F5yjXmoK7a+S13Z6B8KTqcuianMXgjtXmK20bKS6ybRlm9iCnHselbesxeIIvC9kWubW41eCYSTKq7I7gYcbBn7uQRg+q+lc14Ft9J1TSpYL6KV5tLvF1FNm8BTtwp+X7xyrfL9K6SKLSNUjHirT45vN1FFjZ5Ny5RNwHyHgdP85r5fB0084i7Nar7PW2ivfqrt+h4PFTdOniL+81ffr8jkfG15HefD7UHAKOFgMkL/fiLOjbWHY4IrxgD/SF/3f616/8AEfS4/wDhHL3UoJDDL+7WdVHyzpvXaGHqpwQeuMjoa8g6Tj/d/rX7dk7fspX7x/U+SyeMFRm4dZP5Oy0Oi+bVG5ytmp+hlP8A8T/OvpL4ZKB8PtLAAAHm4A/66vXzjcXBR1trYKZ2HA/hRfU/4V9FfCyIw/DrSkLs7DziWbqSZnJ/nX5vhr+1fRdEd2Bv7TsraL5rU7I8V88/En/koGqfWP8A9FpX0NnGa+b/AIms83xF1a2jLIqGLzJOh5iQ4Hvjv2q8ZHmpr1Pt+GaqpYuTtduLSXndHT/D06ldaEjaVd28ccWqYuxLGWLxhF3Kp7Hnr/hg7niTSL7VJLlL66hOmFo3sRCpWa3lVTl9/wBensceueZ8Ato+k6LILqKXzdVuxpo8tXIPy5UHH3fvt83Xn2rpUn0nTR/wi2nJMjaasZKyBiu1wzDDn7x/z2OPmMDBvOI2jdX/AJVt1d/J6ejPF4sqTjSxEr2ku3c5vUtRkt9DvtL1OZf7ROnzOsirtSYDeMr/ALWApK9t3pXheSbX/gX9a+gPFdjbX3hu++0xh/JheWM90ZVJBB/zkZFfP5/49ce/9a/ZssVqVVP+WX6HyGSSjKnKUVZvlv22Wx1U87GT7Nb4MpHzEjiMep9/QV9E/CyIQ/DnS4wWbHnZZjkkmZyc/jXzuBBp1sSSTzkk8s5P8ya+ifhaZH+HGlNKoRz5xIHb98+P0r87wnxu235npYD+I+Xa33nYnHevnj4jxIvxD1dwBvcxEnucQoBX0OcHivnP4o3Hk/EDUo0G+ZzHtT/tknJ9BWuNTdNJdz7jhicIYyU59Iv81sdB8MBM0GtpbyRpOY4whcZAYh9pI7jNddcQaudBs4r+5tJpk41ApF8sylWACjt8xQ9OQD06V558OdF0+YX+o6oks0tg8V4roWGGQSdFXqB2Fddc6h4btbX/AISlDNA2vGKHzZQ4B2g7dwPCDC4z0/PNfJQgv7Wg1r70deVb6aXvta7+XzOHiuU6jxDtZuL06/Dp8zmteE3h/RLm2t7cyaQ9rJEAuWe3kbeQT6odwX/ZwO1eLHH2g46Y/rX0Lr//ACLmqZ6fZZf/AEE189tj7Q2OmP61+7ZMkqbX95fqfA5JVdSnJta6XffRavzOht3hsNNiIXG5QQFHzMxHb1Ne7fBMT/8ACIXpnK721B22r0UeXHxnvXhGn27LDFPMwZ9gCeiLjt7nua93+Cs8dz4RvpI87BqDoGxw2I4+R7f4V+bf8xc7a6u7+Z6WE/ju2u92emVznhv/AJD3i3/sKp/6R21dHXOeG/8AkPeLf+wqn/pHbV2HsHR0UUUAFFFFABRRRQAUUUUANYblIyRkYyK8w0q01GbRvCvhh9LvobrSLyF7u4kgZYBHBuwyyfdff8uApJ+Y5xivUaKAM7U9Jt9XijS5kvI1Q7gba8ltyfqY2Un6Gsa38BaLbRmOCXWI0Ls5VNZu1BZiWY8S9SSST3JzXVUUAc3/AMIRpP8Az9a5/wCDy8/+O1l/8Km8HD/mG3H/AIMLj/4uu3pp/Ck4p7lQqTh8La9DlLX4deHrG3W2tE1K3hXO2OLVrpFXJycASY6kn8afJ4A0ORfmOqsQDjdq90f/AGrRp+v61qupXsNno1l9is75rOSeXUGWQ7cbmEYhI6HgbvxFS+HvFaa7qN7am0NukWZLWUybhdQiR4zIBgY+ZDxzwynvUqnGMuZKzIklNWlqc9pPwx0LU/C+lf8ACRWN9PfG2ie4SfULg4m2Dd8vmYBznpVkfBrwIGDDR5Aw6EX1xkf+P1esfFeq6zbHUdI8PC50pmYQzSXgiluFBxuSMqRg4ONzLn2zUjeIdcudf1XTdL0Wxnj0540ea51FoS5eNX4UQv03Y69q2VSaVk2JQilZIpH4R+C2BB0y4IPBB1C5/wDjlaEPgTRbaCOCCTWIoYlCJHHrN4qooGAABLgADtXRxFzGplCq5A3KrZAPcA4GfyqWs0kthqKWyOc/4QjSf+frXP8AweXn/wAdrMl+FXhGaV5ZLK6kkdizu+o3BLE9ST5nJrtqKGk9y4VJw+F2OUg+H2gWsKw241OKJfupHq90qj6ASUreAdCf/WHVWx03avdnH/kWtPUNZNjruk6Z9n3/ANomYeZvx5flpu6Y5z06iqWqeIrmLXBouk6at/qIhFxP5k/kxQRkkLufaxySDgBT0J4qFThF8yVmTP8AeX59b9zA0n4c6RfaVNHrdtqErtd3K+XNqNxgxCd/K48zB+QIQfx61L/wpjwFjH9iyY9Pts//AMXWlrXibVNC8K3Gp3Og77yK4ihjs47sMsxkdEBV9uer91ByPxqzb+K7e9u9BjtI/Nt9Yt5p0mL7TGEVTgrjr82DyMEVuqs0rJsmMIx2VjKHwj8FKoVdMnCgYAGoXOB/5ErRj8C6NFEkUU2sxxoAqImtXihQOAAPN4FdPRWaSWw1FLZHOf8ACEaT/wA/Wuf+Dy8/+O1mS/CrwlNK8slldSSOxZ3fULgliepJ8zk121FDSe5cKk4axdjkbb4c+HbKPy7aPUoYyclYtVukBPrgSewqVvAOhvxI2qsPRtYuz/7VrS8R6z/wj/h+61QW/wBo8gKfKL7N2WC9cHHX0rK8ReINd0S5t/J0WxubW5uorSCR9SeNy8hABZPJYAA56MePyqFTgndLUU26l+fW/cx9K+HGkX2lTx63bahKzXlwBHNqNwQYlnfyuPMwfkCEHr0PWp/+FM+A85/saTPr9tn/APi60LjxB4hi1ay0ldD057+4t5rl1OpuI0SN0XhvIyxPmD+EYx1q/ofiBtVu77T7qyex1OwZPtFuzh12uCUdHH3lOD2ByCCBXRGrOO0n95EYRjsrGGvwh8EoWZNLnVmOWIv7gE/X95Whb+AdCtLdILVtWgiXO2OLWLtFGTk4Alx1NdVRWSSWqGopO6Rzf/CEaT/z9a5/4PLz/wCO1Qufhh4UvJzPc2l5NM+N0kupXLMcDAyTJnoK7Og/WhpPcqM5Rd4uxyNr8OfDtlGY7ZNRhQncVi1W6UE+uBJ7Clm+HugXOzz11OTy23pv1a6ba2CMjMnBwSM+5rrRXNW3io3HgWfxN9i2iG2nn+z+bnPlb+N2O+zrjjPepVOKd0tQm3O/Nrcw7H4eaZc3etQ6jDqLWguglqr6lcbWhMEW7/lpyN5k6+46U/8A4Ux4Cxj+xZMen22f/wCLrZ1fXNWstDGr2OlWd1brZm6mWe9aFlAXdhQImDcZ6kVa8P6hquqWS3eoaba2cc0SSwCC9acsGGfmBjTbjjpnv+OyqTWzZnGnCPwqxgN8IfBLMrNpc5Zfuk39xkfT95WjbeAdCtLdYLVtWghXO2OLWLtVGTk4Alx1NdTRWaSWxSilsjnP+EI0n/n61z/weXn/AMdrNuPhZ4Su7tru5srua5kADzSajcO7YGBljJk8V2vakoaT3KjKUXeLszj7X4a+GrHf9khv7ffjd5OqXKbsdM4k56mprj4e+H7q3eC4GqTQyDDxyavdsrD0IMuDRe+M4dLl1W2v7Vory02tawRvva+RztjMfA+Yv8hX+E98EGoNP8V63rMTz6b4bilt4WaKWWS/2B5UOJFi/dneoYFdzbASDUeyhe9lccpynrJ3M7Tfhvo7XGsWt5bah9hW5WKziOpXIQweRFkACTkbzIOfp0xU3/CmfAec/wBjSZ9fts//AMXWnN4k1KbWbnTNJ0WO4ns4YpLoXV6INhkBIVcK+44HJ4HuadfeItXj1u10iw0a1mupbE3soub8wiPDKpQFY33HLdeBXRGrUjtJr5mShGOyM0/CHwSY/LOlTlMY2/b7jGPTHmVds/h14d06DyLFdTtYc58uDVrtFzjGcCT0A/KtXw5ra+INGj1AW7QMZJInjLhwrxuyNhhwwypwR1FbFZWW5SilsjnP+EH0n/n61z/weXn/AMdrQ0fQ7HQorlLFZ/8ASJfOlee5knd32quS0jE/dVR17VqUUxhRRRQAUUUUAFFFFABRRRQAUUUUAFFFFABRRRQB5u3g6aKy8SajDoNnL4gnv5pNOuXEZkRX2hJA5PG3LNjIPHTJqxF4L1HQ7zQZbLVLzU7eyH2CS2mWCIJaOoViCqKTtKxtySTtOOTXoFFAHC+H08SeGNFt9AGgtqAs18m2vY7uKOKSMH5C4Y71OMA4VunFUb3w8j+Mtev9R8CnXIbt4GtpwLRtqrCqsMSyKw+YHtXpFFAEEGTbofKMOVH7s4ynHTgkcexxU9FFABRRRQByfii31JPEXh/U7DSp9Rjs2uPOjgliRgHjCg/vGUHn3rOSLXrXxFdeIYfDlxJDqNvHb3enyXEAnRoi2x1O8xspDkEFgeM13tFAHmUPhHUE0jVBZ6JFp0d5rNjdwWEckYMMUTQbydp2A/u3bAJ69zVy38Mapp3xKtri2gD+H1Fzcq/mAG3mmC74wuc7Sy7xgcF2r0GigAooooAKKKKAOb8cadear4N1Gy0+3NxdSKnlxB1UsQ6nGWIA4B6msvVX1vxD/ZsR8NXtiLXU7W6d7i4t2BRHy2NkjHgc13FFAHJa3Hqdr4003V7PRrnUbePT7i2kEEsKMjvJEy58x1yMI3TNP8PaZqJ8Qat4g1SBLSW+jhghtVkEjRRx7jl2HBYlycDIAA5NdVRQAUUUUAFFFFABXmNlb+I4Ph9d+GG8K33nyWt1AtwLq18smTeVP+t3Y+Ydq9OooA4kS63qPhS70aXwzfWcraZJAks1xbMjSeXtC/JKTye5GPXFdNo0Elpodhbzrslit443XIOGCgEZHvWhRQAUUUUAFFFFAHM65o8t94u8M6ilqkkVjLcNLK23MYaIquM88tjpWZodvrvhO0m0aHQn1KzW4lks7mG5iQbJJGfbKHYEEFiMqGyMV3NFAHDeJdMfU7jdc+Cm1C5WELDe2t5FE8bEZK+YWR1AYnkA+uO1ZV14Z1A6hok2veHv+En+z6N9luHDQNi43KS3751zwG+Yc8+9enUUAcx4J0y/0jQXtr6PyQbmWS2tPM8z7LAzZSLd32j0yB0HSunoooAKKKKACiiigAooooAKKKKACiiigAooooAKKKKACiiigAooooAKKKKACiiigAooooAKKKKACiiigAooooAKKKKACiiigAooooAKKKKACiiigAooooAKKKKACiiigAooooAKKKKACiiigAooooAKKKKACiiigAooooA//9k=;" vertex="1" parent="1">
          <mxGeometry x="280" y="282" width="424" height="403" as="geometry" />
        </mxCell>
      </root>
    </mxGraphModel>
  </diagram>
</mxfile>
